<svg width="927" height="90" viewBox="0 0 927 90" fill="none" xmlns="http://www.w3.org/2000/svg">
<g clip-path="url(#clip0_299_708)">
<path d="M782.9 53.1886L777.334 33.5739H927.001V53.0387L816.058 48.2525L782.9 53.1886ZM815.773 46.344H816.041L923.832 51.0003V35.4724H781.089L785.464 50.8604L815.773 46.344Z" fill="white"/>
<path d="M766.203 54.8773H765.801L657.205 49.2117L583.613 51.6199L580.26 32.6346L632.998 33.6338L746.774 36.4616L769.204 33.464L775.004 52.669L766.203 54.8773ZM657.239 47.2932H657.356L765.65 52.9488L771.383 51.46L766.689 35.6623L747.092 38.3102H746.874L632.881 35.4724L583.814 34.5531L586.479 49.6114L657.239 47.2932Z" fill="white"/>
<path d="M774.726 33.5135L771.586 33.7643L775.73 52.2051L778.871 51.9543L774.726 33.5135Z" fill="white"/>
<path d="M576.035 60.0633L567.888 33.2242L523.229 36.8913H523.112L473.122 36.4217L380.67 38.2702L385.297 51.0603L461.203 50.131L506.465 48.2325L570.419 51.0803L570.184 52.9688L506.465 50.131L461.354 52.0195L382.749 52.9888L376.781 36.4517L473.089 34.5232L523.028 34.9928L570.469 31.0958L574.375 43.9858L575.498 32.105L578.667 32.2149L576.035 60.0633Z" fill="white"/>
<path d="M376.714 56.3961L349.272 54.8573L298.545 51.0803L220.979 50.0811L177.394 53.0088L169.9 32.6346L223.544 31.1658L332.76 37.311L370.529 36.3118L376.714 56.3961ZM220.812 48.2425H220.929L298.763 49.2417L349.54 52.9588L372.825 54.2578L367.897 38.3202L332.693 39.2395H332.508L223.31 33.0943L173.639 34.4632L179.774 50.9604L220.812 48.2425Z" fill="white"/>
<path d="M165.156 52.5192L107.288 50.6006L0 49.6014L18.4401 29.2572L118.637 33.0743L164.469 36.002L165.894 49.1718C166.179 51.8697 166.179 51.8697 165.709 52.1694L165.156 52.5192ZM5.28056 47.7928L107.405 48.7121L162.725 50.5507C162.457 48.0826 161.77 41.8275 161.334 37.7406L118.318 34.9728L20.217 31.2357L5.28056 47.7928Z" fill="white"/>
<path d="M167.635 30.6065L164.506 30.902L170.16 52.18L173.289 51.8846L167.635 30.6065Z" fill="white"/>
<path d="M717.537 30.2665C717.537 29.3272 696.9 0 696.9 0V25.9798L717.537 30.2665Z" fill="#00EA6B"/>
<path d="M643.828 52.0195L615.162 64.7896V75.841L642.152 66.2085L643.828 52.0195Z" fill="#00EA6B"/>
<path d="M349.373 58.6444L363.656 67.1578L356.514 90L349.373 58.6444Z" fill="#00EA6B"/>
<path d="M331.922 59.5937L314.454 57.6951L280.709 74.3222L331.922 59.5937Z" fill="#00EA6B"/>
</g>
<defs>
<clipPath id="clip0_299_708">
<rect width="927" height="90" fill="white"/>
</clipPath>
</defs>
</svg>
