<svg width="45" height="59" viewBox="0 0 45 59" fill="none" xmlns="http://www.w3.org/2000/svg">
<g clip-path="url(#clip0_61_800)">
<path d="M42.3524 24.1365V21.4539H39.7046V18.7826H34.4108V16.0999H26.4692V13.4191H21.1754V2.69216H18.5294V0H13.2357V2.68266H10.5934V26.8192H7.94748V24.1365H0.00585938V32.1827H2.65182V34.8635H5.29965V40.2212H7.94748V45.5866H10.5934V50.9501H13.2413V59.0038H39.7102V50.9596H42.358V42.9134H45.004V24.1308L42.3524 24.1365Z" fill="white"/>
<path d="M13.2357 2.68268H10.5879V34.8654H13.2357V2.68268Z" fill="black"/>
<path d="M18.5291 0H13.2354V2.68268H18.5291V0Z" fill="black"/>
<path d="M21.1771 2.68268H18.5293V26.8192H21.1771V2.68268Z" fill="black"/>
<path d="M26.4686 13.4096H21.1748V16.0923H26.4686V13.4096Z" fill="black"/>
<path d="M29.1185 18.7731H26.4707V26.8192H29.1185V18.7731Z" fill="black"/>
<path d="M34.4123 16.0904H26.4707V18.7731H34.4123V16.0904Z" fill="black"/>
<path d="M37.058 21.4539H34.4102V29.4943H37.058V21.4539Z" fill="black"/>
<path d="M39.7039 18.7731H34.4102V21.4558H39.7039V18.7731Z" fill="black"/>
<path d="M42.3519 21.4539H39.7041V24.1365H42.3519V21.4539Z" fill="black"/>
<path d="M45.0004 24.1365H42.3525V42.9096H45.0004V24.1365Z" fill="black"/>
<path d="M42.3519 42.9096H39.7041V50.9557H42.3519V42.9096Z" fill="black"/>
<path d="M39.7064 50.9557H37.0586V59.0019H39.7064V50.9557Z" fill="black"/>
<path d="M37.0583 56.3192H13.2354V59.0019H37.0583V56.3192Z" fill="black"/>
<path d="M10.5892 26.8192H7.94141V29.5019H10.5892V26.8192Z" fill="black"/>
<path d="M7.94162 24.1365H0V26.8192H7.94162V24.1365Z" fill="black"/>
<path d="M2.64783 26.8192H0V32.1827H2.64783V26.8192Z" fill="black"/>
<path d="M5.29529 32.1827H2.64746V34.8654H5.29529V32.1827Z" fill="black"/>
<path d="M7.94178 34.8635H5.29395V40.2269H7.94178V34.8635Z" fill="black"/>
<path d="M10.5892 40.2269H7.94141V45.5904H10.5892V40.2269Z" fill="black"/>
<path d="M13.2357 45.5923H10.5879V50.9557H13.2357V45.5923Z" fill="black"/>
<path d="M15.8832 50.9557H13.2354V56.3192H15.8832V50.9557Z" fill="black"/>
</g>
<defs>
<clipPath id="clip0_61_800">
<rect width="45" height="59" fill="white"/>
</clipPath>
</defs>
</svg>
