<svg width="1022" height="596" viewBox="0 0 1022 596" fill="none" xmlns="http://www.w3.org/2000/svg">
<path d="M963.613 1.51953H59.0034C43.9929 1.52407 29.5987 7.03357 18.9847 16.8366C8.37061 26.6397 2.40531 39.934 2.40039 53.7976V448.025C2.40039 461.892 8.36328 475.191 18.9779 484.998C29.5925 494.804 43.9897 500.316 59.0034 500.321H726.14L801.636 593.016L877.112 500.321H963.613C971.048 500.321 978.411 498.968 985.281 496.34C992.151 493.712 998.393 489.86 1003.65 485.004C1008.91 480.147 1013.08 474.383 1015.92 468.038C1018.77 461.693 1020.23 454.893 1020.23 448.025V53.7976C1020.23 39.931 1014.26 26.6339 1003.64 16.8303C993.026 7.0268 978.626 1.51953 963.613 1.51953Z" fill="#6531FF" stroke="black" stroke-width="3" stroke-miterlimit="10"/>
</svg>
