<svg width="421" height="225" viewBox="0 0 421 225" fill="none" xmlns="http://www.w3.org/2000/svg">
<path fill-rule="evenodd" clip-rule="evenodd" d="M420.999 210.278C420.999 230.727 418.331 250.288 412.997 268.515C402.327 305.858 381.433 338.756 353.87 364.541C334.309 382.768 310.747 397.438 285.407 407.219C262.29 416.11 236.95 421 210.721 421C207.165 421 203.163 421 199.607 420.555C194.272 420.111 188.493 419.666 183.158 419.222C142.259 413.887 105.36 396.994 75.5743 371.654C64.4602 362.318 54.2353 351.648 44.8995 340.09C38.2311 331.643 32.0072 322.307 26.2279 312.527C24.8942 310.304 23.5606 308.081 22.6714 305.414C22.6714 305.414 22.6714 305.414 22.6714 304.969C21.3378 302.302 20.0041 300.079 19.1149 297.412C15.5584 289.41 12.4465 280.963 9.77911 272.516C8.00087 266.292 6.22266 260.069 4.88898 253.845C3.99985 249.399 3.11073 244.954 2.66617 240.063C1.33248 230.283 0.443359 220.503 0.443359 210.278C0.443359 204.498 0.887908 198.719 1.33247 192.94C1.77703 189.383 2.22161 185.827 2.66617 182.27C5.33354 161.376 11.1128 141.815 19.5595 123.588C23.5605 114.697 28.4507 105.806 33.7855 97.359C42.6767 83.5776 52.9016 70.6853 64.9048 59.5712C102.693 22.6726 154.706 0 211.61 0C213.833 0 216.056 0 218.279 0C220.501 0 223.169 2.71273e-05 225.392 0.444589C237.395 1.33371 249.398 3.11195 260.512 5.77932C267.18 7.55756 273.849 9.33582 280.073 11.5586C284.518 12.8923 288.519 14.6705 292.965 16.4488C296.077 17.7825 299.189 19.1162 302.301 20.4499C302.745 20.8944 303.19 20.8944 304.079 21.339C324.529 31.1193 343.2 44.4562 359.205 60.4604C361.427 62.6832 363.65 64.906 365.873 67.1288C367.207 68.9071 368.985 70.2408 370.319 72.0191C372.986 74.6864 375.209 77.7983 377.432 80.4657C385.878 91.1352 392.991 102.694 399.215 114.697C406.328 128.923 412.108 144.038 416.109 159.598C418.776 175.602 420.999 192.495 420.999 210.278Z" fill="url(#paint0_radial_267_4343)"/>
<path d="M264.514 155.598C264.514 153.82 270.441 154.857 273.405 155.598H286.742C292.076 155.598 284.519 160.043 280.073 162.266C277.851 163.007 272.516 164.489 268.959 164.489C264.514 164.489 264.514 157.821 264.514 155.598Z" fill="url(#paint1_linear_267_4343)"/>
<path fill-rule="evenodd" clip-rule="evenodd" d="M302.747 20.8935C301.857 20.8935 301.413 20.8935 300.524 21.3381C298.301 21.7827 296.078 21.3381 293.855 20.8935C292.077 20.4489 291.188 19.5598 288.965 19.5598C286.298 19.1153 284.075 18.2262 281.408 17.7816C278.74 17.337 276.517 16.4479 273.85 15.5588C271.627 14.6697 270.738 15.1142 268.96 15.5588C267.182 16.0033 265.848 15.1142 264.07 14.6697C262.291 13.7806 260.069 13.7805 258.29 13.336C252.956 12.4469 247.621 10.6686 242.286 9.33495C239.174 8.44582 236.062 8.44577 232.506 8.44577C229.838 8.44577 227.616 9.33495 224.948 9.33495C223.17 9.33495 221.836 8.89036 220.058 8.89036C218.28 8.4458 216.502 8.89036 214.723 8.89036C212.056 8.4458 210.722 8.00124 208.055 8.89036C205.832 9.33492 204.498 9.33491 202.276 9.77947C200.053 9.77947 197.385 10.6686 195.163 11.1132C191.162 12.0023 186.716 12.8914 182.715 12.8914C180.048 12.8914 176.491 12.0023 174.268 12.8914C172.934 13.3359 172.045 15.1142 170.712 16.0034C168.489 18.2262 166.266 20.0044 164.488 22.2272C162.71 24.45 160.931 27.1173 160.931 30.2293C160.931 32.8966 162.265 36.0087 163.599 38.2315C164.932 40.8988 165.377 43.1216 162.71 44.8999C159.598 47.1227 155.597 48.9009 152.04 50.2345C149.373 51.1237 147.15 51.5683 145.372 49.7901C144.483 49.3455 144.038 48.0118 143.149 47.1227C142.26 46.6781 140.926 47.1227 140.037 47.5673C137.37 48.4564 134.702 49.3455 132.035 49.7901C130.257 50.2347 128.923 51.1237 127.145 51.1237C125.366 51.5683 124.033 50.2346 121.81 50.6791C119.143 51.1237 116.031 52.4574 113.363 52.4574C111.14 52.4574 108.473 51.5683 106.695 50.6791C105.806 50.2346 105.361 49.3455 104.027 49.7901C103.138 49.7901 101.805 51.1238 101.36 52.0129C100.471 52.902 100.471 54.2356 99.5818 55.1247C98.6927 56.4584 98.2481 57.3476 97.359 58.6813C96.0253 60.9041 94.6916 63.1269 93.358 65.3498C92.4688 66.6834 91.5797 68.9061 90.246 70.2398C89.8015 71.1289 88.4678 71.5736 87.5786 72.0182C85.3558 73.3519 83.133 75.1301 80.9102 76.4638C76.9092 79.5757 72.9081 83.1321 68.9071 86.2441C65.7951 88.4669 61.3495 89.8006 57.793 91.5789C55.5702 92.468 53.3474 93.3571 51.1246 94.2463C50.2355 94.6908 48.9018 94.6908 48.4572 95.5799C47.5681 96.469 47.1235 97.3582 46.679 98.6919C44.9007 100.915 42.6779 103.582 41.3443 106.249C40.4551 108.028 40.0106 109.361 39.1214 111.14C38.2323 113.362 36.8986 115.585 36.454 118.253C34.6758 123.143 34.6758 128.477 32.453 133.368C31.5639 136.035 29.7856 138.702 28.4519 141.37C26.2291 145.815 25.7846 151.15 25.34 156.04C24.8954 158.708 25.34 162.264 25.7846 164.932C26.2292 168.043 26.2291 171.155 26.2291 174.267C26.2291 177.379 24.0063 180.936 22.2281 183.159C20.4498 185.381 17.3379 186.27 15.1151 188.493C13.3368 190.272 11.1141 192.05 10.2249 194.717C9.78037 195.606 10.2249 196.94 10.2249 198.274C9.78037 200.941 8.89123 203.164 8.89123 205.831C8.44667 208.943 8.44665 212.055 8.44665 215.612C8.44665 217.39 8.44665 218.724 8.44665 220.502C8.44665 222.28 8.89126 223.614 9.33582 224.947C9.33582 225.837 9.33582 227.17 9.33582 228.059C9.33582 229.393 10.2249 230.727 10.2249 231.616C11.1141 234.728 11.5586 237.395 12.0032 240.507C12.4477 243.174 13.7814 245.842 14.226 248.509C15.5596 252.066 16.0042 255.622 16.8934 259.623C17.3379 262.29 17.3379 265.402 17.7825 268.07C18.227 270.293 18.6716 272.515 18.6716 274.738C18.6716 278.295 17.7825 281.407 17.7825 284.963C17.7825 290.743 20.0053 296.522 21.339 302.301C21.7835 304.079 22.2281 305.413 22.6727 307.191C8.00214 278.739 0 246.286 0 212.055C0 170.266 12.0031 131.589 32.8975 99.1363C41.7888 85.3549 52.0137 72.4626 64.0169 61.3486C101.805 24.45 153.818 1.77734 210.722 1.77734C215.168 1.77734 220.058 1.77737 224.504 2.22193C252.066 1.77737 278.74 8.89034 302.747 20.8935Z" fill="url(#paint2_linear_267_4343)"/>
<path d="M251.179 175.601C261.848 177.38 276.37 182.27 282.298 184.493H295.634C300.08 184.493 324.53 202.275 328.976 213.389C333.422 224.503 346.759 213.389 357.873 213.389C368.987 213.389 342.313 251.177 333.422 260.068C324.53 268.959 340.09 286.742 342.313 291.187C344.536 295.633 335.645 302.301 333.422 320.084C331.199 337.866 324.53 362.317 320.085 377.877C316.528 390.325 299.339 400.846 291.188 404.551C288.225 406.032 280.519 406.329 273.406 395.659C264.514 382.323 260.069 360.094 257.846 351.203C255.623 342.312 275.629 295.633 235.618 291.187C195.608 286.742 217.837 324.53 166.712 286.742C115.587 248.954 173.38 175.601 177.826 168.933C182.272 162.265 193.386 168.933 213.391 162.264C229.395 156.93 245.251 160.042 251.179 162.264C246.733 165.969 240.509 173.823 251.179 175.601Z" fill="url(#paint3_linear_267_4343)"/>
<path d="M80.0225 124.478V115.587V104.473C80.0225 100.027 75.5769 100.027 71.1313 93.3585C66.6857 86.6901 71.1313 88.9129 77.7997 86.6901C84.4681 84.4672 82.2453 91.1357 82.2453 93.3585C82.2453 95.5813 91.1366 100.027 93.3594 100.027C95.5822 100.027 104.473 100.027 102.251 104.473C100.028 108.918 100.028 111.141 93.3594 120.032C88.0246 127.145 82.2453 125.96 80.0225 124.478Z" fill="url(#paint4_linear_267_4343)"/>
<path d="M75.5742 108.917C77.3525 107.139 68.9058 100.767 64.4602 97.8032C63.7192 101.508 61.3483 109.806 57.7918 113.363C53.3461 117.809 64.4602 117.809 68.9058 120.031C73.3514 122.254 73.3514 111.14 75.5742 108.917Z" fill="url(#paint5_linear_267_4343)"/>
<path fill-rule="evenodd" clip-rule="evenodd" d="M295.633 164.485C295.633 171.598 291.187 174.859 288.965 175.6L302.302 182.27C301.561 180.046 302.302 175.6 311.193 175.6C316.75 175.6 321.752 184.491 326.753 193.382C331.754 202.274 336.756 211.165 342.313 211.165C353.427 211.165 380.1 195.607 386.769 188.938C392.104 183.604 384.546 174.861 380.1 171.156C378.619 175.601 371.654 180.491 355.65 164.485C335.644 144.478 342.313 140.036 355.65 148.926C366.319 156.038 373.432 154.854 375.655 153.372C378.619 151.89 387.658 150.704 400.106 157.818C412.553 164.932 412.702 214.13 411.22 237.84C415.665 220.058 422.778 179.158 415.665 157.818C393.437 91.1328 366.764 66.6829 342.313 44.4548C322.752 26.6723 273.406 8.89051 251.178 2.22241C245.25 5.18616 232.505 13.3365 228.949 22.2277C224.772 32.6734 222.557 33.3007 209.387 37.03C208.545 37.2686 207.657 37.5199 206.721 37.7873C195.98 40.857 195.832 40.7473 192.383 38.1911C190.835 37.0445 188.624 35.4057 184.494 33.3407C174.594 28.3902 161.017 34.4653 149.222 39.7429C145.129 41.5742 141.251 43.3095 137.815 44.4548C124.479 48.9004 113.364 62.2372 113.364 66.6829C113.364 68.2577 112.248 69.5536 111.203 70.7682C109.296 72.9823 107.622 74.9261 113.364 77.7969C119.205 80.717 124.086 79.801 129.267 78.8285C131.975 78.3204 134.764 77.7969 137.815 77.7969C146.707 77.7969 142.26 84.4653 137.815 88.9109C133.371 93.3566 124.478 95.5794 113.364 97.8022C107.424 98.9904 106.564 102.719 105.353 107.97C104.298 112.542 102.977 118.268 97.8048 124.475C91.4125 132.146 89.2327 134.914 88.7875 135.589C85.0736 135.609 79.1918 136.518 84.467 140.036L84.4789 140.044C91.1434 144.487 97.7994 148.926 88.9126 148.926C85.0261 148.926 82.4138 151.898 79.962 154.688C76.8041 158.281 73.9124 161.571 68.9073 157.818C62.2389 152.817 58.0716 159.068 52.6538 167.195C50.8479 169.904 48.903 172.821 46.6802 175.6C40.982 182.722 42.5875 187.106 44.4755 192.262C45.5335 195.151 46.6802 198.283 46.6802 202.274C46.6802 208.027 49.0627 207.824 52.5945 207.523C55.8854 207.242 60.174 206.877 64.4626 211.165C72.6844 219.387 88.5087 208.602 96.1179 203.416C96.7375 202.994 97.3026 202.609 97.8048 202.274C104.473 197.829 115.587 164.485 113.364 157.818C111.48 152.165 125.576 143.314 133.972 138.042C135.478 137.096 136.801 136.265 137.815 135.589C142.621 132.384 147.427 136.108 154.729 141.766C157.559 143.959 160.764 146.443 164.489 148.926C172.666 154.377 172.487 154.815 171.637 156.9C171.101 158.215 170.297 160.186 171.157 164.485C172.269 170.042 173.38 167.819 175.325 163.93C177.27 160.04 180.049 154.484 184.494 153.372C193.386 151.15 188.94 142.258 175.603 140.036C162.266 137.813 148.93 124.475 155.598 124.475H184.494C195.609 124.475 202.276 131.144 197.83 135.589C193.385 140.034 215.613 148.926 222.281 148.926C227.151 148.926 223.724 141.815 219.789 133.651C218.335 130.634 216.812 127.474 215.613 124.475C212.513 116.726 220.219 119.783 226.676 122.344C229.48 123.456 232.049 124.475 233.394 124.475C237.839 124.475 240.063 128.921 233.394 135.589C226.726 142.257 251.177 148.926 257.845 148.926H284.519C295.633 148.926 295.633 155.594 295.633 164.485ZM244.509 122.254C249.695 122.995 260.958 124.032 264.514 122.254C268.071 120.476 279.333 125.959 284.519 128.922C287.483 129.663 292.966 130.256 291.188 126.7C288.965 122.254 275.628 106.694 266.737 108.917C257.846 111.14 242.286 120.03 244.509 122.254Z" fill="url(#paint6_linear_267_4343)"/>
<defs>
<radialGradient id="paint0_radial_267_4343" cx="0" cy="0" r="1" gradientUnits="userSpaceOnUse" gradientTransform="translate(80.0319 111.541) scale(338.318 338.318)">
<stop offset="0.00558659" stop-color="#0CB9C4"/>
<stop offset="0.2058" stop-color="#0C96C1"/>
<stop offset="0.3613" stop-color="#0B79B7"/>
<stop offset="0.5018" stop-color="#096EA7"/>
<stop offset="0.6334" stop-color="#075E8F"/>
<stop offset="0.7576" stop-color="#044A72"/>
<stop offset="0.8715" stop-color="#003C74"/>
</radialGradient>
<linearGradient id="paint1_linear_267_4343" x1="276.545" y1="154.616" x2="276.545" y2="164.489" gradientUnits="userSpaceOnUse">
<stop stop-color="#43991F"/>
<stop offset="1" stop-color="#4BFF00" stop-opacity="0"/>
</linearGradient>
<linearGradient id="paint2_linear_267_4343" x1="-0.146705" y1="152.27" x2="302.821" y2="152.27" gradientUnits="userSpaceOnUse">
<stop stop-color="#2CB3FF"/>
<stop offset="0.0885417" stop-color="#2CA6FF"/>
<stop offset="0.2325" stop-color="#2DCAFC"/>
<stop offset="0.3947" stop-color="#32AEF3"/>
<stop offset="0.5382" stop-color="#3A7EE3"/>
<stop offset="0.6707" stop-color="#446ACD"/>
<stop offset="0.7958" stop-color="#4268B1"/>
<stop offset="0.9136" stop-color="#1F598E"/>
<stop offset="1" stop-color="#005D72"/>
</linearGradient>
<linearGradient id="paint3_linear_267_4343" x1="253.131" y1="159.319" x2="253.131" y2="405.302" gradientUnits="userSpaceOnUse">
<stop stop-color="#00EA6B"/>
<stop offset="1" stop-color="#4BFF00" stop-opacity="0"/>
</linearGradient>
<linearGradient id="paint4_linear_267_4343" x1="85.9731" y1="86.2427" x2="85.9731" y2="125.602" gradientUnits="userSpaceOnUse">
<stop stop-color="#43991F"/>
<stop offset="1" stop-color="#4BFF00" stop-opacity="0"/>
</linearGradient>
<linearGradient id="paint5_linear_267_4343" x1="66.2891" y1="97.8032" x2="66.2891" y2="120.324" gradientUnits="userSpaceOnUse">
<stop stop-color="#43991F"/>
<stop offset="1" stop-color="#4BFF00" stop-opacity="0"/>
</linearGradient>
<linearGradient id="paint6_linear_267_4343" x1="230.706" y1="2.22241" x2="230.706" y2="237.84" gradientUnits="userSpaceOnUse">
<stop stop-color="#00EA6B"/>
<stop offset="1" stop-color="#4BFF00" stop-opacity="0"/>
</linearGradient>
</defs>
</svg>
