<svg width="134" height="96" viewBox="0 0 134 96" fill="none" xmlns="http://www.w3.org/2000/svg">
<path d="M125.477 50.865L123.753 32.6409L60.9811 35.6245L75.8204 10.1709L58.6867 -2.66363e-06L37.0814 38.2386L-2.25 38.2386L0.431323 62.6281L3.11264 87.0177L37.8444 78.299L47.8813 88.7287L65.1005 90.2812L65.2926 88.1742L48.8738 86.7008L38.5274 75.949L4.96422 84.3773L0.12984 40.3509L38.3353 40.3509L59.4764 2.93086L72.923 10.9155L57.1766 37.9217L121.816 34.8483L123.15 48.9058L80.4093 51.8578L80.5588 53.9649L125.477 50.865Z" fill="#00EA6B"/>
<path d="M102.044 93.7507L98.3146 56.3994L91.9007 51.3456L90.5721 52.9985L96.2762 57.4978L99.7019 91.7651L66.2188 93.5712L64.7407 58.0047L86.0952 58.0047L86.0952 55.8924L62.5156 55.8924L64.1751 95.7944L102.044 93.7507Z" fill="#00EA6B"/>
<path d="M61.4801 45.0403C61.4666 42.1253 61.0023 39.2296 60.1034 36.4537L58.0704 37.0874C61.0425 46.3975 58.7161 55.6442 52.3983 59.5837C49.1273 61.6274 45.4242 61.6961 42.8949 61.4426L42.6602 63.5549C45.5256 63.8718 49.741 63.7503 53.5402 61.3792C58.6467 58.1843 61.4801 52.0321 61.4801 45.0403Z" fill="#00EA6B"/>
<path d="M64.1523 70.5626L64.1523 68.4503L98.5533 68.4503L98.5533 70.5626L64.1523 70.5626Z" fill="#00EA6B"/>
<path d="M64.7103 83.1153L99.6758 80.2642L99.851 82.3694L64.8856 85.2205L64.7103 83.1153Z" fill="#00EA6B"/>
<path d="M4.99819 85.2327L-10.5188 54.0282L-0.193698 39.9126L-1.92255 38.6768L-13 53.817L3.08258 86.1621L4.99819 85.2327Z" fill="#00EA6B"/>
<path d="M65.1988 5.13297L64.3184 4.54152L58.817 12.5156L52.8247 12.0826L52.75 13.1334L59.3506 13.614L65.1988 5.13297Z" fill="#00EA6B"/>
<path d="M74.1168 89.7584L72.9802 62.8736L63.8984 62.8736L63.8984 63.9298L71.9611 63.9298L73.0069 88.7022L65.2004 88.7022L65.2004 89.7584L74.1168 89.7584Z" fill="#00EA6B"/>
<path d="M114.796 21.1339L117.181 11.0475L126.055 11.0475L113.611 7.01297L114.796 21.1339Z" fill="#00EA6B"/>
<path d="M134 74.7239L127.373 78.13L124.315 70.4094L118.248 73.4248L118.248 68.6139L113.611 79.577L122.277 78.637L124.315 85.5126L134 74.7239Z" fill="#00EA6B"/>
</svg>
