<svg width="194" height="197" viewBox="0 0 194 197" fill="none" xmlns="http://www.w3.org/2000/svg">
<g id="Layer_2" clip-path="url(#clip0_102_677)">
<path id="Vector" d="M145.945 127.794C143.987 130.282 133.83 142.633 116.012 144.665C106.255 145.714 96.4237 143.535 88.0239 138.463C66.4119 140.716 44.8011 142.975 23.1916 145.241L11.8665 78.1489C41.3174 75.4777 70.7683 72.8066 100.219 70.1355L69.5513 43.7762L83.953 26.6684L136.827 72.6855C148.933 71.144 161.039 69.6025 173.146 68.0611L187.52 78.8361L187.992 126.245L145.945 127.794Z" stroke="white" stroke-width="4" stroke-miterlimit="10"/>
<path id="Vector_2" d="M18.3457 114.952L73.4886 109.999" stroke="white" stroke-width="4" stroke-miterlimit="10"/>
<path id="Vector_3" d="M21.1628 130.303L76.0931 124.14L70.209 92.1938L14.8041 95.7803" stroke="white" stroke-width="4" stroke-miterlimit="10"/>
<path id="Vector_4" d="M100.219 70.1356C99.4171 72.4516 96.2985 82.4838 101.27 92.6573C106.432 103.137 118.206 109.548 131.097 108.846" stroke="white" stroke-width="4" stroke-miterlimit="10"/>
<path id="Vector_5" d="M187.992 126.245L173.146 68.061" stroke="white" stroke-width="4" stroke-miterlimit="10"/>
<path id="Vector_6" d="M100.348 166.136L90.1349 172.292L76.4341 154.02L59.3123 167.571L51.4683 158.619L55.1727 178.731L76.2891 164.444L83.5026 186.791L100.348 166.136Z" fill="#00EA6B"/>
<path id="Vector_7" d="M35.369 55.2349L30.7812 61.0463L4.76852 45.2183L10.6848 38.0987L35.369 55.2349Z" fill="#00EA6B"/>
<path id="Vector_8" d="M43.3681 53.7618L48.3513 52.844L40.7725 25.7115L33.4326 27.0635L43.3681 53.7618Z" fill="#00EA6B"/>
<path id="Vector_9" d="M129.151 37.9618L120.291 23.9408L105.364 22.7253L123.001 17.4117L129.151 37.9618Z" fill="#00EA6B"/>
</g>
<defs>
<clipPath id="clip0_102_677">
<rect width="166.155" height="177.873" fill="white" transform="matrix(0.18114 0.983457 0.983457 -0.18114 0.447632 33.1387)"/>
</clipPath>
</defs>
</svg>
