<svg width="24" height="24" viewBox="0 0 24 24" fill="none" xmlns="http://www.w3.org/2000/svg">
<g id="la:telegram-plane">
<path id="Vector" d="M19.5522 2.997C19.3115 3.01452 19.0751 3.071 18.8525 3.16425H18.8495C18.6357 3.249 17.6195 3.6765 16.0745 4.3245L10.538 6.65625C6.56522 8.32875 2.65997 9.97575 2.65997 9.97575L2.70647 9.95775C2.70647 9.95775 2.43722 10.0463 2.15597 10.239C1.98222 10.3496 1.8327 10.4942 1.71647 10.6643C1.57847 10.8668 1.46747 11.1765 1.50872 11.4968C1.57622 12.0383 1.92722 12.363 2.17922 12.5423C2.43422 12.7238 2.67722 12.8085 2.67722 12.8085H2.68322L6.34547 14.0423C6.50972 14.5695 7.46147 17.6985 7.69022 18.4193C7.82522 18.8498 7.95647 19.119 8.12072 19.3245C8.20022 19.4295 8.29322 19.5173 8.40497 19.5878C8.46307 19.6215 8.52501 19.6482 8.58947 19.6673L8.55197 19.6583C8.56322 19.6613 8.57222 19.6703 8.58047 19.6733C8.61047 19.6815 8.63072 19.6845 8.66897 19.6905C9.24872 19.866 9.71447 19.506 9.71447 19.506L9.74072 19.485L11.903 17.5163L15.527 20.2965L15.6095 20.3318C16.3647 20.6633 17.1297 20.4788 17.534 20.1533C17.9412 19.8255 18.0995 19.4063 18.0995 19.4063L18.1257 19.3388L20.9262 4.992C21.0057 4.638 21.026 4.3065 20.9382 3.98475C20.8477 3.65912 20.6388 3.37906 20.3525 3.1995C20.112 3.05334 19.8332 2.98279 19.5522 2.997ZM19.4765 4.5345C19.4735 4.58175 19.4825 4.5765 19.4615 4.66725V4.6755L16.6872 18.873C16.6752 18.8933 16.655 18.9375 16.5995 18.9818C16.541 19.0283 16.4945 19.0575 16.2507 18.9608L11.8182 15.5625L9.14072 18.003L9.70322 14.4105L16.9452 7.6605C17.2437 7.383 17.144 7.3245 17.144 7.3245C17.165 6.984 16.6932 7.22475 16.6932 7.22475L7.56122 12.882L7.55822 12.867L3.18122 11.3933V11.3903L3.16997 11.388C3.17765 11.3855 3.18516 11.3824 3.19247 11.379L3.21647 11.367L3.23972 11.3588C3.23972 11.3588 7.14797 9.71175 11.1207 8.03925C13.1097 7.2015 15.1137 6.35775 16.655 5.70675C17.569 5.322 18.484 4.9395 19.4 4.55925C19.4615 4.53525 19.4322 4.5345 19.4765 4.5345Z" fill="white"/>
</g>
</svg>
