<svg width="65" height="67" viewBox="0 0 65 67" fill="none" xmlns="http://www.w3.org/2000/svg">
<g clip-path="url(#clip0_90_173)">
<path d="M22.7806 51.3538C24.0818 50.8888 25.1467 49.9282 25.7433 48.6812C26.3398 47.4343 26.4198 46.0021 25.9658 44.6964C25.6665 43.8424 25.153 43.0796 24.4745 42.4811C23.796 41.8826 22.9752 41.4685 22.0908 41.2785C20.7633 41.003 19.3806 41.2524 18.233 41.9746C17.0853 42.6968 16.2617 43.8356 15.935 45.1521L1.41211 43.7222L12.0171 34.1786L12.1756 34.3173C12.8641 34.8955 13.6895 35.2871 14.5727 35.4545C15.456 35.6218 16.3673 35.5594 17.2195 35.2733C18.0717 34.9871 18.8361 34.4867 19.4395 33.8201C20.0429 33.1534 20.4651 32.3429 20.6655 31.4662C20.8659 30.5895 20.8379 29.676 20.5841 28.8132C20.3303 27.9504 19.8593 27.1673 19.2161 26.539C18.573 25.9106 17.7793 25.4581 16.9112 25.2248C16.0431 24.9914 15.1296 24.9851 14.2583 25.2063L8.11906 11.667L22.17 16.2406C22.0365 17.1379 22.1379 18.0545 22.4641 18.901C22.7903 19.7474 23.3303 20.4947 24.0314 21.0701C24.7324 21.6454 25.5706 22.0291 26.464 22.1837C27.3575 22.3382 28.2758 22.2584 29.1292 21.952C29.9827 21.6455 30.7421 21.123 31.3335 20.4353C31.9248 19.7476 32.3279 18.9182 32.5033 18.0282C32.6787 17.1382 32.6205 16.2178 32.3344 15.357C32.0482 14.4962 31.5438 13.7243 30.8706 13.1167L39.2278 1.44312L42.2413 15.6429C40.9404 16.1094 39.8761 17.0707 39.2797 18.3179C38.6833 19.5652 38.603 20.9975 39.0562 22.3036C39.3563 23.1589 39.8713 23.9225 40.5517 24.5211C41.2321 25.1196 42.0549 25.533 42.9411 25.7215C44.2686 25.9971 45.6512 25.7476 46.7989 25.0254C47.9466 24.3032 48.7702 23.1644 49.0968 21.8479L63.6198 23.2745L53.0147 32.8214C52.9632 32.7725 52.9092 32.7262 52.853 32.6827C51.783 31.8155 50.4151 31.4041 49.0445 31.5373C47.674 31.6705 46.4108 32.3376 45.5276 33.3946C44.6445 34.4516 44.2122 35.8137 44.3242 37.1868C44.4362 38.5599 45.0835 39.8339 46.1262 40.7337C46.7833 41.2855 47.567 41.6656 48.407 41.8399C49.1891 42.0048 49.9985 41.989 50.7736 41.7937L56.9128 55.3331L42.852 50.7693C42.9855 49.872 42.8841 48.9554 42.5579 48.109C42.2317 47.2626 41.6917 46.5152 40.9906 45.9399C40.2896 45.3645 39.4514 44.9809 38.5579 44.8263C37.6645 44.6717 36.7462 44.7516 35.8928 45.058C35.0393 45.3644 34.2799 45.887 33.6885 46.5747C33.0971 47.2624 32.6941 48.0917 32.5187 48.9817C32.3433 49.8718 32.4015 50.7921 32.6876 51.6529C32.9738 52.5137 33.4781 53.2856 34.1514 53.8933L25.7941 65.5668L22.7806 51.3538ZM33.9732 26.415C32.5724 26.1239 31.1168 26.2548 29.7904 26.7912C28.464 27.3277 27.3264 28.2455 26.5212 29.4287C25.7161 30.6119 25.2796 32.0073 25.2671 33.4386C25.2545 34.8699 25.6663 36.2729 26.4505 37.47C27.2347 38.6672 28.3561 39.6049 29.6728 40.1646C30.9896 40.7243 32.4426 40.8808 33.8483 40.6145C35.254 40.3481 36.5492 39.6707 37.5702 38.668C38.5911 37.6653 39.292 36.3823 39.5843 34.9811C39.9738 33.1009 39.6017 31.1428 38.5497 29.5368C37.4977 27.9308 35.8518 26.808 33.9732 26.415Z" fill="#6531FF"/>
<path d="M49.0735 21.8479C48.7468 23.1644 47.9232 24.3032 46.7756 25.0254C45.6279 25.7476 44.2453 25.9971 42.9177 25.7215C42.0315 25.533 41.2087 25.1196 40.5283 24.5211C39.848 23.9225 39.333 23.1589 39.0329 22.3036C38.5799 20.9966 38.6612 19.5636 39.2589 18.3162C39.8566 17.0689 40.9225 16.1081 42.2246 15.6429L39.2111 1.44312L30.8538 13.1167C31.5271 13.7243 32.0314 14.4962 32.3176 15.357C32.6037 16.2178 32.662 17.1382 32.4865 18.0282C32.3111 18.9182 31.9081 19.7476 31.3167 20.4353C30.7254 21.123 29.9659 21.6455 29.1125 21.952C28.259 22.2584 27.3407 22.3382 26.4473 22.1837C25.5538 22.0291 24.7156 21.6454 24.0146 21.0701C23.3135 20.4947 22.7736 19.7474 22.4473 18.901C22.1211 18.0545 22.0198 17.1379 22.1532 16.2406L8.0957 11.6571L14.235 25.1964C15.01 25.0018 15.819 24.9848 16.6015 25.1469C17.3807 25.312 18.112 25.6525 18.74 26.1425C19.368 26.6325 19.8762 27.2592 20.2261 27.975C20.576 28.6908 20.7584 29.4769 20.7594 30.2737C20.7604 31.0705 20.58 31.8571 20.2319 32.5737C19.8838 33.2904 19.3772 33.9184 18.7504 34.41C18.1236 34.9015 17.3931 35.2439 16.6144 35.411C15.8357 35.5781 15.0292 35.5655 14.2561 35.3743C13.4829 35.1831 12.7635 34.8183 12.1522 34.3074L11.9938 34.1687L8.28384 37.5073C13.6715 37.9852 19.0924 37.9509 24.4736 37.405C25.0875 37.3422 25.6949 37.2729 26.3022 37.2002C25.7076 36.2066 25.3603 35.0846 25.2896 33.9287C25.2189 32.7728 25.4268 31.6168 25.8958 30.5581C26.3648 29.4993 27.0812 28.5688 27.9847 27.8449C28.8881 27.1209 29.9522 26.6248 31.0873 26.3981C32.2225 26.1715 33.3954 26.2211 34.5074 26.5426C35.6194 26.8641 36.6379 27.4483 37.4771 28.2458C38.3164 29.0434 38.9519 30.031 39.33 31.1255C39.7081 32.22 39.8179 33.3895 39.6501 34.5353C49.057 31.8274 56.5693 27.693 60.7545 22.9773L49.0735 21.8479Z" fill="#6531FF"/>
<path d="M38.9049 2.86638L41.5455 15.283C40.6693 15.6876 39.9071 16.3034 39.3272 17.0751C38.7472 17.8468 38.3676 18.7504 38.2223 19.7049C38.0771 20.6594 38.1707 21.6351 38.4948 22.5445C38.8188 23.454 39.3633 24.2688 40.0794 24.916C40.7955 25.5633 41.6608 26.0228 42.5979 26.2533C43.5351 26.4839 44.5147 26.4783 45.4492 26.2371C46.3836 25.9959 47.2437 25.5267 47.9524 24.8713C48.661 24.216 49.1962 23.395 49.51 22.4819L62.2241 23.7335L52.9823 32.042C52.284 31.5168 51.4767 31.1552 50.6201 30.9838C49.7634 30.8124 48.8793 30.8356 48.0328 31.0518C47.1863 31.2679 46.3991 31.6714 45.7293 32.2325C45.0595 32.7936 44.5242 33.4981 44.1628 34.2938C43.8014 35.0896 43.6233 35.9563 43.6414 36.8302C43.6596 37.704 43.8736 38.5627 44.2677 39.3427C44.6618 40.1227 45.2259 40.8043 45.9184 41.3371C46.611 41.8699 47.4142 42.2404 48.2689 42.4211C48.9753 42.5667 49.7023 42.5824 50.4144 42.4673L55.8077 54.3556L43.483 50.3433C43.5414 49.3799 43.3602 48.417 42.9555 47.5408C42.5508 46.6646 41.9354 45.9024 41.1642 45.3225C40.393 44.7426 39.4901 44.363 38.5364 44.2178C37.5826 44.0725 36.6078 44.1661 35.699 44.4901C34.7903 44.8141 33.976 45.3585 33.3291 46.0745C32.6821 46.7906 32.2227 47.6559 31.9919 48.5931C31.7612 49.5302 31.7662 50.5101 32.0067 51.4448C32.2471 52.3796 32.7154 53.2401 33.3697 53.9494L26.0885 64.1237L23.4479 51.7038C24.7597 51.0996 25.8006 50.0298 26.3689 48.7016C26.9372 47.3734 26.9926 45.8814 26.5241 44.5148C26.0155 43.0527 24.9479 41.8522 23.5556 41.1768C22.1633 40.5014 20.56 40.4061 19.0976 40.912C18.2619 41.1981 17.5025 41.6715 16.8773 42.2958C16.2521 42.9202 15.7776 43.6791 15.49 44.5148L2.77585 43.2665L12.0177 34.958C12.7889 35.5407 13.6926 35.9228 14.6477 36.07C15.6028 36.2172 16.5796 36.1249 17.4903 35.8014C18.401 35.4779 19.2172 34.9333 19.8657 34.2165C20.5142 33.4996 20.9748 32.633 21.206 31.6942C21.4372 30.7554 21.4319 29.7738 21.1906 28.8376C20.9493 27.9013 20.4795 27.0397 19.8233 26.3298C19.1671 25.62 18.3451 25.0842 17.4309 24.7706C16.5168 24.4569 15.5391 24.3752 14.5856 24.5327L9.19234 12.6444L21.517 16.6534C21.4575 17.6172 21.6379 18.5808 22.042 19.4577C22.446 20.3347 23.0612 21.0977 23.8324 21.6784C24.6036 22.2591 25.5067 22.6393 26.4608 22.785C27.415 22.9308 28.3903 22.8374 29.2995 22.5134C30.2088 22.1894 31.0235 21.6448 31.6707 20.9284C32.3179 20.212 32.7774 19.3462 33.008 18.4085C33.2387 17.4708 33.2332 16.4906 32.9922 15.5555C32.7512 14.6204 32.2821 13.7598 31.627 13.0506L38.9115 2.87629M30.9041 41.1828C32.4192 41.5001 33.9942 41.3607 35.4301 40.7824C36.866 40.2041 38.0983 39.2127 38.971 37.9337C39.8437 36.6547 40.3177 35.1454 40.3331 33.5969C40.3484 32.0483 39.9045 30.53 39.0573 29.2339C38.2101 27.9377 36.9978 26.9221 35.5737 26.3154C34.1495 25.7086 32.5775 25.5381 31.0565 25.8252C29.5354 26.1124 28.1337 26.8444 27.0284 27.9286C25.9232 29.0129 25.1642 30.4007 24.8474 31.9166C24.4254 33.9486 24.826 36.0652 25.9613 37.8022C27.0967 39.5392 28.8742 40.7549 30.9041 41.1828ZM39.5057 0L30.0459 13.2091C30.7281 13.6972 31.2658 14.3606 31.6022 15.1292C31.9385 15.8978 32.0611 16.743 31.9568 17.5756C31.8525 18.4081 31.5254 19.197 31.0099 19.8588C30.4944 20.5206 29.8097 21.0308 29.0282 21.3353C28.2468 21.6399 27.3976 21.7275 26.5705 21.589C25.7434 21.4504 24.969 21.0908 24.3294 20.5482C23.6897 20.0056 23.2084 19.3002 22.9365 18.5065C22.6646 17.7128 22.612 16.8603 22.7845 16.0392C22.7845 15.9665 22.8208 15.8972 22.8373 15.8278L6.99411 10.673L13.9024 25.9163C14.7241 25.6155 15.6135 25.5503 16.4703 25.7281C17.1598 25.8773 17.8064 26.1815 18.3612 26.6175C18.9159 27.0535 19.3643 27.61 19.6725 28.2449C19.9807 28.8798 20.1406 29.5765 20.1401 30.2823C20.1396 30.9881 19.9787 31.6846 19.6696 32.319C19.3605 32.9535 18.9113 33.5094 18.3559 33.9446C17.8005 34.3798 17.1535 34.683 16.4638 34.8313C15.7741 34.9796 15.0597 34.969 14.3747 34.8005C13.6896 34.6319 13.0518 34.3097 12.5095 33.8583C12.3268 33.7014 12.1559 33.5315 11.9979 33.3497L0 44.1845L16.401 45.796C16.5118 44.9752 16.8395 44.1987 17.3503 43.5468C17.8611 42.8948 18.5364 42.391 19.3067 42.0873C20.077 41.7836 20.9143 41.691 21.7323 41.819C22.5503 41.947 23.3193 42.291 23.9601 42.8156C24.6009 43.3401 25.0902 44.0262 25.3776 44.803C25.665 45.5799 25.7401 46.4193 25.595 47.2349C25.45 48.0504 25.0902 48.8125 24.5526 49.4425C24.015 50.0725 23.3192 50.5476 22.5369 50.8188C22.3873 50.8694 22.2388 50.9124 22.0914 50.9476L25.4943 67.0033L34.954 53.7942C34.2719 53.3061 33.7342 52.6427 33.3978 51.8741C33.0615 51.1055 32.9389 50.2603 33.0432 49.4277C33.1475 48.5952 33.4746 47.8063 33.9901 47.1445C34.5056 46.4827 35.1903 45.9725 35.9718 45.668C36.7532 45.3634 37.6024 45.2758 38.4295 45.4143C39.2566 45.5529 40.0309 45.9125 40.6706 46.4551C41.3103 46.9976 41.7916 47.7031 42.0635 48.4968C42.3354 49.2905 42.388 50.143 42.2155 50.9641C42.2155 51.0368 42.1792 51.1061 42.1594 51.1755L58.0026 56.3303L51.0943 41.0837C50.2729 41.3861 49.3831 41.4513 48.5264 41.2719C47.7802 41.1149 47.0848 40.7744 46.5031 40.2812C45.6163 39.4736 45.0753 38.3546 44.993 37.1576C44.9107 35.9607 45.2934 34.7781 46.0613 33.8565C46.8291 32.935 47.9229 32.3455 49.1146 32.2111C50.3063 32.0767 51.5038 32.4077 52.4575 33.1351C52.6406 33.2892 52.8106 33.4582 52.9658 33.6403L65 22.8188L48.599 21.2073C48.4882 22.0281 48.1605 22.8046 47.6497 23.4565C47.1389 24.1085 46.4636 24.6123 45.6933 24.916C44.923 25.2197 44.0857 25.3123 43.2677 25.1843C42.4497 25.0563 41.6807 24.7123 41.0399 24.1877C40.3991 23.6632 39.9098 22.9771 39.6224 22.2003C39.335 21.4234 39.2599 20.584 39.405 19.7684C39.55 18.9529 39.9098 18.1908 40.4474 17.5608C40.985 16.9308 41.6808 16.4557 42.463 16.1845C42.6092 16.1329 42.758 16.0888 42.9086 16.0524L39.5057 0ZM31.1385 40.0071C29.8523 39.7376 28.675 39.0926 27.7552 38.1537C26.8355 37.2147 26.2146 36.024 25.9713 34.732C25.7279 33.4401 25.8729 32.105 26.3879 30.8954C26.9029 29.6859 27.7648 28.6564 28.8647 27.937C29.9645 27.2175 31.2529 26.8405 32.5669 26.8537C33.8808 26.8668 35.1614 27.2694 36.2467 28.0107C37.332 28.7519 38.1732 29.7985 38.664 31.018C39.1547 32.2376 39.2731 33.5754 39.004 34.8622C38.6422 36.5876 37.6105 38.0988 36.1357 39.0636C34.6608 40.0283 32.8634 40.3677 31.1385 40.0071Z" fill="#6531FF"/>
<path d="M34.0106 26.2762C32.5833 25.9774 31.0994 26.1088 29.7467 26.6537C28.394 27.1986 27.2331 28.1326 26.4109 29.3375C25.5886 30.5424 25.142 31.9642 25.1273 33.4231C25.1127 34.882 25.5307 36.3125 26.3286 37.5337C27.1265 38.7549 28.2684 39.712 29.61 40.2839C30.9515 40.8559 32.4324 41.017 33.8654 40.747C35.2985 40.477 36.6193 39.7879 37.661 38.7668C38.7026 37.7458 39.4183 36.4387 39.7175 35.0107C39.9162 34.0623 39.9262 33.084 39.7469 32.1317C39.5677 31.1794 39.2026 30.2718 38.6726 29.4606C38.1427 28.6495 37.4582 27.9508 36.6583 27.4044C35.8584 26.858 34.9587 26.4747 34.0106 26.2762ZM31.7464 37.111C31.0326 36.9617 30.3792 36.604 29.8686 36.0832C29.3581 35.5624 29.0134 34.9017 28.8781 34.1849C28.7428 33.4681 28.8229 32.7272 29.1085 32.0559C29.394 31.3847 29.8721 30.8132 30.4822 30.4138C31.0924 30.0144 31.8072 29.8049 32.5363 29.8119C33.2655 29.819 33.9761 30.0421 34.5785 30.4532C35.1808 30.8643 35.6478 31.4449 35.9204 32.1215C36.193 32.7981 36.2589 33.5404 36.1098 34.2545C36.0108 34.7288 35.8195 35.1788 35.5466 35.5791C35.2737 35.9793 34.9247 36.3218 34.5195 36.587C34.1143 36.8523 33.6608 37.0351 33.185 37.125C32.7092 37.2149 32.2203 37.2101 31.7464 37.111Z" fill="#6531FF"/>
<path d="M33.8156 27.2075C32.5717 26.9465 31.2784 27.0606 30.0994 27.5353C28.9203 28.01 27.9085 28.824 27.1921 29.8743C26.4756 30.9246 26.0867 32.1639 26.0745 33.4354C26.0623 34.7069 26.4275 35.9534 27.1237 37.0172C27.8199 38.081 28.8159 38.9143 29.9857 39.4115C31.1554 39.9087 32.4463 40.0476 33.6949 39.8105C34.9436 39.5734 36.0939 38.971 37.0002 38.0796C37.9065 37.1882 38.5282 36.0478 38.7864 34.8027C39.1321 33.1362 38.8029 31.4006 37.8709 29.9766C36.939 28.5527 35.4806 27.5568 33.8156 27.2075ZM31.6966 37.3422C30.9367 37.1833 30.241 36.8025 29.6975 36.248C29.154 35.6935 28.7871 34.9901 28.6431 34.2269C28.4992 33.4638 28.5847 32.675 28.8888 31.9605C29.193 31.2459 29.7021 30.6376 30.3518 30.2126C31.0015 29.7876 31.7626 29.5648 32.5389 29.5726C33.3151 29.5804 34.0716 29.8183 34.7127 30.2563C35.3537 30.6943 35.8506 31.3126 36.1403 32.0331C36.4301 32.7536 36.4998 33.5439 36.3406 34.3041C36.2353 34.8088 36.0317 35.2878 35.7412 35.7137C35.4508 36.1396 35.0793 36.5041 34.648 36.7862C34.2167 37.0684 33.734 37.2627 33.2276 37.3581C32.7212 37.4535 32.2009 37.4481 31.6966 37.3422Z" fill="#6531FF"/>
</g>
<defs>
<clipPath id="clip0_90_173">
<rect width="65" height="67" fill="white"/>
</clipPath>
</defs>
</svg>
