<svg width="58" height="69" viewBox="0 0 58 69" fill="none" xmlns="http://www.w3.org/2000/svg">
<g clip-path="url(#clip0_122_52)">
<path d="M48.3109 36.9075V31.1184L38.828 38.3346V31.1184L22.9497 43.2017V31.1184L18.2083 35.6905V38.6895H2.16455V51.439C2.16484 52.7477 2.69155 54.0026 3.62886 54.928C4.56617 55.8533 5.83735 56.3733 7.16291 56.3736H17.776C18.4555 56.3739 19.1284 56.242 19.7563 55.9854C20.3841 55.7288 20.9545 55.3526 21.435 54.8782C21.9155 54.4039 22.2966 53.8407 22.5565 53.2209C22.8164 52.6011 22.95 51.9368 22.9497 51.266V56.428H50.6905C52.0626 56.428 53.3786 55.8899 54.3488 54.932C55.3191 53.9742 55.8642 52.675 55.8642 51.3204V31.1609L48.3109 36.9075ZM9.13007 51.4205C8.65718 51.4205 8.20367 51.2351 7.86929 50.905C7.53491 50.5749 7.34706 50.1271 7.34706 49.6603V43.9289L14.0369 51.4205H9.13007Z" fill="white"/>
<path d="M20.5239 5.10107V23.8335C20.5237 24.0727 20.5068 24.3117 20.4731 24.5487C20.2988 25.7674 19.6844 26.883 18.7431 27.69C17.8018 28.4971 16.5969 28.9414 15.3502 28.9411H2.16455V15.7692H14.607C14.948 15.7692 15.275 15.6355 15.5161 15.3974C15.7572 15.1594 15.8927 14.8366 15.8927 14.4999V9.67313L20.5239 5.10107Z" fill="white"/>
<path d="M55.6227 14.809C55.367 14.0488 54.9382 13.3566 54.3694 12.7853C53.8006 12.2141 53.1067 11.7792 52.3412 11.5139C51.8087 11.3348 51.2496 11.245 50.6872 11.2483H38.828V15.7659L27.5809 3.57373L24.2045 6.90698L32.3775 15.7659H22.9497V23.9553C22.9497 25.2767 23.4814 26.5441 24.4279 27.4784C25.3744 28.4128 26.6581 28.9378 27.9966 28.9378H38.8093V24.2569H38.828V24.4201C38.828 24.529 38.828 24.6302 38.8391 24.7347C38.9213 25.8733 39.4374 26.9388 40.2833 27.7168C41.1293 28.4948 42.2424 28.9276 43.3986 28.928H51.4403L55.809 28.9334L55.8642 16.3516C55.8662 15.828 55.7847 15.3075 55.6227 14.809ZM51.1514 23.4361L44.4615 15.9444H49.3684C49.8413 15.9444 50.2948 16.1299 50.6292 16.46C50.9635 16.7901 51.1514 17.2378 51.1514 17.7047V23.4361Z" fill="white"/>
<path d="M48.3374 67.4236C48.3374 67.0749 48.051 66.7922 47.6978 66.7922C47.3446 66.7922 47.0583 67.0749 47.0583 67.4236C47.0583 67.7723 47.3446 68.055 47.6978 68.055C48.051 68.055 48.3374 67.7723 48.3374 67.4236Z" fill="white"/>
<path d="M47.6979 68.1758C47.5472 68.1758 47.3998 68.1317 47.2745 68.049C47.1492 67.9664 47.0516 67.8489 46.9939 67.7115C46.9362 67.574 46.9212 67.4228 46.9506 67.2768C46.98 67.1309 47.0525 66.9969 47.1591 66.8917C47.2656 66.7865 47.4014 66.7149 47.5492 66.6858C47.697 66.6568 47.8502 66.6717 47.9894 66.7286C48.1287 66.7856 48.2477 66.882 48.3314 67.0057C48.4151 67.1294 48.4598 67.2748 48.4598 67.4236C48.4595 67.623 48.3791 67.8142 48.2363 67.9552C48.0935 68.0962 47.8998 68.1755 47.6979 68.1758ZM47.6979 66.9131C47.5953 66.9131 47.4951 66.9431 47.4098 66.9994C47.3246 67.0556 47.2581 67.1356 47.2189 67.2291C47.1798 67.3227 47.1696 67.4256 47.1896 67.5249C47.2097 67.6242 47.2592 67.7153 47.3318 67.7869C47.4044 67.8584 47.4968 67.907 47.5974 67.9266C47.698 67.9462 47.8023 67.936 47.8969 67.8971C47.9916 67.8582 48.0725 67.7924 48.1293 67.7081C48.1861 67.6239 48.2163 67.5248 48.2161 67.4236C48.2158 67.2881 48.1611 67.1582 48.0639 67.0625C47.9668 66.9668 47.8351 66.9131 47.6979 66.9131Z" fill="white"/>
<path d="M11.4633 63.4165C11.4633 63.0678 11.177 62.7852 10.8237 62.7852C10.4705 62.7852 10.1842 63.0678 10.1842 63.4165C10.1842 63.7652 10.4705 64.0479 10.8237 64.0479C11.177 64.0479 11.4633 63.7652 11.4633 63.4165Z" fill="white"/>
<path d="M10.8204 64.1678C10.6696 64.168 10.5222 64.124 10.3967 64.0414C10.2712 63.9589 10.1734 63.8414 10.1156 63.7039C10.0578 63.5664 10.0426 63.4151 10.072 63.2691C10.1013 63.123 10.1739 62.9889 10.2805 62.8836C10.3872 62.7784 10.523 62.7067 10.6709 62.6777C10.8188 62.6487 10.9721 62.6637 11.1114 62.7208C11.2507 62.7779 11.3697 62.8744 11.4533 62.9983C11.5369 63.1222 11.5815 63.2678 11.5813 63.4166C11.5807 63.6157 11.5003 63.8064 11.3578 63.9471C11.2152 64.0879 11.022 64.1672 10.8204 64.1678ZM10.8204 62.905C10.7179 62.9048 10.6176 62.9346 10.5322 62.9907C10.4468 63.0468 10.3802 63.1266 10.3408 63.2201C10.3014 63.3136 10.291 63.4165 10.3109 63.5158C10.3308 63.6151 10.38 63.7064 10.4525 63.778C10.5249 63.8497 10.6172 63.8985 10.7178 63.9184C10.8184 63.9382 10.9226 63.9281 11.0174 63.8894C11.1121 63.8507 11.1932 63.7852 11.2501 63.701C11.3071 63.6168 11.3376 63.5179 11.3376 63.4166C11.3373 63.2812 11.2827 63.1514 11.1858 63.0555C11.089 62.9597 10.9576 62.9056 10.8204 62.905Z" fill="white"/>
<path d="M16.304 67.4454C16.3038 67.5193 16.3185 67.5926 16.3471 67.6609C16.3756 67.7293 16.4176 67.7914 16.4706 67.8437C16.5236 67.896 16.5865 67.9374 16.6557 67.9656C16.7249 67.9939 16.7991 68.0083 16.874 68.0082H18.3273C18.4819 68.0114 18.6314 67.9539 18.743 67.8484C18.8546 67.7429 18.9193 67.5979 18.9228 67.4454V67.4367C18.9212 67.3607 18.9044 67.2857 18.8734 67.2162C18.8423 67.1466 18.7976 67.0838 18.7418 67.0314C18.6861 66.979 18.6203 66.938 18.5484 66.9107C18.4765 66.8835 18.3999 66.8706 18.3229 66.8728L16.8707 66.8826C16.72 66.8832 16.5757 66.9427 16.4694 67.0483C16.3632 67.1538 16.3037 67.2966 16.304 67.4454Z" fill="white"/>
<path d="M18.3273 68.1727H16.874C16.6787 68.1727 16.4913 68.0961 16.3532 67.9597C16.2151 67.8234 16.1375 67.6384 16.1375 67.4455C16.1375 67.2527 16.2151 67.0677 16.3532 66.9314C16.4913 66.795 16.6787 66.7184 16.874 66.7184L18.3262 66.7086H18.3317C18.4337 66.7071 18.5348 66.7256 18.6295 66.763C18.7241 66.8004 18.8103 66.8559 18.8831 66.9263C18.9513 66.9924 19.0055 67.0714 19.0425 67.1585C19.0794 67.2456 19.0983 67.3391 19.0981 67.4336V67.4423C19.0967 67.5404 19.0755 67.6372 19.0359 67.7272C18.9963 67.8172 18.939 67.8985 18.8673 67.9665C18.7956 68.0344 18.7109 68.0876 18.6183 68.123C18.5256 68.1584 18.4267 68.1753 18.3273 68.1727ZM18.3273 67.0373L16.8751 67.046C16.7716 67.0514 16.6741 67.0957 16.6027 67.17C16.5314 67.2442 16.4916 67.3427 16.4916 67.445C16.4916 67.5474 16.5314 67.6458 16.6027 67.72C16.6741 67.7943 16.7716 67.8386 16.8751 67.844H18.3284C18.4389 67.8472 18.5462 67.8071 18.6268 67.7324C18.7074 67.6577 18.7547 67.5546 18.7585 67.4455V67.4368C18.7584 67.3856 18.748 67.335 18.7277 67.2878C18.7074 67.2407 18.6778 67.1981 18.6405 67.1625C18.5992 67.1224 18.5503 67.0906 18.4965 67.0691C18.4428 67.0477 18.3853 67.0369 18.3273 67.0373Z" fill="white"/>
<path d="M30.396 67.9941L28.3417 67.9832V66.8369H32.0908C32.2563 66.8394 32.4186 66.8819 32.5635 66.9608C32.7084 67.0397 32.8315 67.1526 32.9219 67.2895C33.0122 67.4264 33.0672 67.5831 33.0818 67.7458C33.0964 67.9086 33.0703 68.0724 33.0058 68.2228C32.9412 68.3733 32.8402 68.5058 32.7116 68.6086C32.583 68.7115 32.4308 68.7816 32.2683 68.8128C32.1059 68.844 31.9381 68.8352 31.7799 68.7874C31.6217 68.7395 31.4777 68.654 31.3608 68.5384L31.3531 68.5308C31.1006 68.2815 30.7577 67.9952 30.396 67.9941Z" fill="white"/>
<path d="M32.2573 66.6922C32.5334 66.7363 32.7847 66.8757 32.9665 67.0856C33.1482 67.2956 33.2486 67.5623 33.2497 67.8385C33.25 68.0682 33.1813 68.2928 33.0522 68.4838C32.9231 68.6749 32.7395 68.8239 32.5246 68.9119C32.3098 68.9999 32.0732 69.023 31.8451 68.9782C31.6169 68.9334 31.4073 68.8228 31.2428 68.6604L31.234 68.6517C30.9032 68.3251 30.632 68.1596 30.3949 68.1585L28.1752 68.1498V66.6726H32.2551L32.2573 66.6922ZM28.5082 67.82L30.396 67.8298C30.8371 67.8298 31.2208 68.1683 31.4722 68.422H31.4777C31.5748 68.5199 31.6949 68.5927 31.8273 68.6339C31.9597 68.675 32.1003 68.6833 32.2368 68.6579C32.3732 68.6326 32.5011 68.5743 32.6093 68.4884C32.7175 68.4026 32.8025 68.2916 32.8568 68.1655C32.9112 68.0394 32.9332 67.902 32.9208 67.7655C32.9085 67.629 32.8622 67.4976 32.7861 67.383C32.71 67.2684 32.6064 67.1741 32.4845 67.1085C32.3627 67.0428 32.2263 67.0079 32.0875 67.0068H31.9243H28.506L28.5082 67.82Z" fill="white"/>
<path d="M7.86308 61.8296L7.90278 64.9582C7.90278 65.8958 8.38464 66.5384 9.34836 66.8861C9.58186 66.9594 9.82558 66.9961 10.0706 66.9949H11.8128C12.7883 66.9949 13.4661 66.5461 13.8461 65.6484C13.8993 65.468 13.9264 65.281 13.9266 65.0932V61.9722L15.3083 61.9972L15.3182 64.5881H16.7362C16.7715 64.5881 16.7902 64.6098 16.7902 64.6403V65.9085C16.7914 65.9158 16.7907 65.9232 16.7884 65.9302C16.7861 65.9372 16.7821 65.9435 16.7769 65.9487C16.7716 65.9539 16.7652 65.9578 16.7581 65.9601C16.7511 65.9624 16.7435 65.963 16.7362 65.9619H15.1285C15.0837 66.3755 14.7713 66.9039 14.1913 67.5468C13.5879 68.0578 12.8194 68.3388 12.0245 68.3393H9.64278C8.54011 68.3393 7.62123 67.7141 6.88612 66.4637C6.68065 66.0057 6.57149 65.5113 6.56525 65.0104V61.8361L7.86308 61.8296Z" fill="white"/>
<path d="M19.892 62.0776H20.0254C20.3639 62.0776 20.5701 62.316 20.6407 62.7918V64.5879H21.5162C21.5515 64.5879 21.5702 64.6097 21.5702 64.6402V65.9084C21.5714 65.9156 21.5708 65.9231 21.5684 65.93C21.5661 65.937 21.5622 65.9433 21.5569 65.9485C21.5516 65.9537 21.5452 65.9576 21.5382 65.9599C21.5311 65.9622 21.5236 65.9628 21.5162 65.9617H16.6535C16.6462 65.9626 16.6388 65.9619 16.6319 65.9595C16.625 65.9571 16.6187 65.9532 16.6136 65.948C16.6085 65.9429 16.6046 65.9366 16.6023 65.9297C16.6001 65.9228 16.5995 65.9155 16.6006 65.9084V64.6402C16.605 64.6053 16.6226 64.5879 16.6535 64.5879H19.2767V62.8701C19.2767 62.4913 19.4281 62.2373 19.731 62.1081L19.892 62.0776Z" fill="white"/>
<path d="M21.277 64.614H24.4615V65.9617H21.277C21.2696 65.9628 21.2621 65.9622 21.2551 65.9599C21.248 65.9576 21.2416 65.9537 21.2363 65.9485C21.231 65.9433 21.2271 65.937 21.2248 65.93C21.2225 65.923 21.2218 65.9156 21.223 65.9083V64.6663C21.2274 64.6314 21.245 64.614 21.277 64.614Z" fill="white"/>
<path d="M24.414 64.614H27.5985V65.9617H24.414C24.4068 65.9626 24.3994 65.9618 24.3925 65.9595C24.3855 65.9571 24.3793 65.9532 24.3741 65.948C24.369 65.9428 24.3652 65.9366 24.3629 65.9297C24.3606 65.9228 24.36 65.9155 24.3611 65.9083V64.6663C24.3655 64.6314 24.3832 64.614 24.414 64.614Z" fill="white"/>
<path d="M38.2877 61.1218C38.3252 62.6088 38.3164 63.8346 38.2965 64.7457C38.3036 65.1927 38.2212 65.6366 38.0539 66.052C37.759 66.7269 37.2578 67.294 36.6205 67.674C35.4572 68.3881 34.2575 68.2325 33.9146 68.1759C33.9146 67.7288 33.9146 67.2814 33.9146 66.8336C34.8265 67.0688 35.7703 66.8162 36.3503 66.1729C36.7309 65.732 36.931 65.1668 36.9116 64.5879V61.7086L38.2877 61.1218Z" fill="white"/>
<path d="M41.9695 60.9651H42.1294C43.052 60.9651 43.7746 61.4495 44.2973 62.4183C44.4361 62.7445 44.5088 63.0944 44.5112 63.4482V64.5846H45.3547C45.39 64.589 45.4076 64.6064 45.4076 64.6369V65.9051C45.4087 65.9122 45.4081 65.9195 45.4058 65.9264C45.4036 65.9333 45.3997 65.9396 45.3946 65.9448C45.3895 65.9499 45.3832 65.9539 45.3763 65.9562C45.3694 65.9586 45.362 65.9594 45.3547 65.9584H44.3237C44.234 66.3939 43.922 66.9044 43.3876 67.4901C42.726 68.054 42.0478 68.3359 41.3532 68.3359H39.1589C39.1516 68.3368 39.1442 68.3361 39.1373 68.3337C39.1304 68.3313 39.1241 68.3274 39.119 68.3222C39.1138 68.3171 39.11 68.3108 39.1077 68.3039C39.1055 68.297 39.1048 68.2897 39.1059 68.2826V67.5728C39.1721 67.1679 39.4294 66.9654 39.8778 66.9654H40.6805C41.656 66.9654 42.3783 66.6388 42.8473 65.9856V65.9595H42.3125C40.9033 65.9595 40.0211 65.2813 39.6661 63.925L39.6131 63.4492C39.6131 62.4064 40.1483 61.6226 41.2186 61.0979C41.4608 61.0168 41.7139 60.972 41.9695 60.9651ZM40.9771 63.4754C40.9771 63.9587 41.2267 64.302 41.7259 64.5052C41.7916 64.5401 41.8651 64.5584 41.9398 64.5585H42.1812C42.6047 64.5585 42.9255 64.2682 43.1439 63.6876C43.1439 63.5418 43.1527 63.4623 43.1714 63.4492C43.0457 62.7097 42.6888 62.34 42.1008 62.34H42.0258C41.4906 62.34 41.1429 62.6665 40.9827 63.3197L40.9771 63.4754Z" fill="white"/>
<path d="M45.8851 61.1274H49.5514C50.8452 61.1274 51.6656 61.6558 52.0126 62.7124C52.0791 63.0075 52.116 63.3083 52.1228 63.6105V65.275C52.1282 65.4153 52.0864 65.5535 52.0041 65.6681C51.9217 65.7826 51.8034 65.8671 51.6674 65.9085C51.5562 65.9494 51.4376 65.9676 51.319 65.9619H45.3271C45.3199 65.9628 45.3125 65.962 45.3056 65.9596C45.2986 65.9573 45.2924 65.9533 45.2872 65.9482C45.2821 65.943 45.2783 65.9367 45.276 65.9299C45.2737 65.923 45.2731 65.9157 45.2742 65.9085V64.6664C45.2742 64.6305 45.2963 64.6131 45.3271 64.6131H50.6199V63.1087C50.5273 62.7037 49.9657 62.5012 48.935 62.5012C48.0242 62.4649 46.8113 62.4472 45.2962 62.4479L45.8851 61.1274Z" fill="white"/>
<path d="M27.9591 61.1274H31.6254C32.9192 61.1274 33.74 61.6558 34.0877 62.7124C34.1537 63.0076 34.1907 63.3083 34.198 63.6105V65.275C34.2033 65.4153 34.1616 65.5535 34.0792 65.6681C33.9969 65.7826 33.8785 65.8671 33.7426 65.9085C33.6316 65.9494 33.5135 65.9675 33.3952 65.9619H27.3978C27.3905 65.963 27.383 65.9623 27.3759 65.9601C27.3688 65.9578 27.3624 65.9539 27.3572 65.9487C27.3519 65.9435 27.3479 65.9371 27.3456 65.9302C27.3433 65.9232 27.3427 65.9158 27.3438 65.9085V64.6664C27.3438 64.6305 27.3659 64.6131 27.3978 64.6131H32.6906V63.1087C32.5973 62.7037 32.0353 62.5012 31.0046 62.5012C30.0953 62.4649 28.8824 62.4472 27.3659 62.4479L27.9591 61.1274Z" fill="white"/>
<path d="M50.9771 58.5039H7.02285C5.16099 58.5016 3.37606 57.7704 2.05953 56.4707C0.742991 55.1709 0.00233426 53.4088 0 51.5707V13.5997H13.4006C13.502 13.5995 13.5992 13.5596 13.6709 13.4888C13.7426 13.418 13.783 13.3221 13.7833 13.222V8.64994L13.9002 8.54108L18.0076 4.59496L22.115 0.648837L22.7854 0.00439453L22.77 0.927515C22.7523 2.03569 22.7325 2.77811 22.7148 3.48896C22.7027 3.98535 22.6895 4.49372 22.6762 5.12837L24.714 3.20048L27.4155 0.642306L27.7 0.372337L36.6569 10.0412L36.5896 8.97652L50.4027 8.83065C51.3976 8.81971 52.3849 9.0037 53.3074 9.37198C54.2299 9.74026 55.0692 10.2855 55.7768 10.9762C56.4844 11.6668 57.0462 12.4892 57.4297 13.3956C57.8132 14.3021 58.0108 15.2746 58.011 16.257V51.5707C58.0087 53.4107 57.2665 55.1745 55.9476 56.4745C54.6287 57.7745 52.8409 58.5045 50.9771 58.5039ZM0.771863 14.3618V51.5707C0.773906 53.2068 1.43315 54.7753 2.60499 55.9322C3.77684 57.0891 5.36561 57.7399 7.02285 57.7419H50.9771C52.6344 57.7399 54.2232 57.0891 55.395 55.9322C56.5669 54.7753 57.2261 53.2068 57.2281 51.5707V16.257C57.2283 15.3819 57.0538 14.5155 56.7148 13.707C56.3757 12.8985 55.8787 12.1639 55.2521 11.545C54.6254 10.9262 53.8815 10.4353 53.0626 10.1003C52.2438 9.76529 51.3662 9.5928 50.4798 9.59266H50.406L37.4056 9.73091L37.5589 12.1497L27.6603 1.46201L25.2432 3.74804L22.5417 6.30622L21.8746 6.93977L21.8889 6.02536C21.9077 4.91718 21.9264 4.17477 21.9441 3.46392C21.9573 2.9697 21.9694 2.4646 21.9827 1.83104L18.5468 5.13163L14.5562 8.96563V13.2176C14.5557 13.5198 14.4338 13.8093 14.2175 14.0229C14.0011 14.2366 13.7078 14.3568 13.4018 14.3574L0.771863 14.3618Z" fill="white"/>
</g>
<defs>
<clipPath id="clip0_122_52">
<rect width="58" height="69" fill="white"/>
</clipPath>
</defs>
</svg>
