<svg width="123" height="125" viewBox="0 0 123 125" fill="none" xmlns="http://www.w3.org/2000/svg">
<path fill-rule="evenodd" clip-rule="evenodd" d="M123 62.5122C123 68.357 122.221 74.2018 120.662 79.527C117.545 90.4372 111.44 100.049 103.388 107.582C97.6726 112.907 90.7888 117.193 83.2555 120.051C76.5016 122.648 69.0982 124.077 61.4351 124.077C60.396 124.077 59.227 124.077 58.188 123.947C56.6294 123.817 54.9408 123.688 53.3822 123.558C41.5628 121.999 30.6526 117.063 21.9504 109.66C18.7033 106.932 15.7159 103.815 12.9884 100.438C11.0401 97.8406 9.22175 95.2429 7.66314 92.3855C7.27349 91.7361 6.88385 90.9568 6.49419 90.3074C6.49419 90.3074 6.49419 90.3074 6.49419 90.1775C6.10454 89.3982 5.71487 88.7488 5.4551 87.9695C4.41603 85.6315 3.50683 83.1637 2.72753 80.696C2.20799 78.8776 1.68849 77.0592 1.29884 75.2408C1.03907 73.942 0.779303 72.6432 0.649419 71.2144C0.259768 68.357 0 65.4995 0 62.5122C0 60.8237 -2.37863e-05 59.1352 0.259744 57.4467C0.389628 56.4077 0.519535 55.3686 0.649419 54.3295C1.42872 48.225 3.1172 42.5101 5.58499 37.1849C6.75395 34.5872 8.18268 31.9895 9.74129 29.6516C12.339 25.6252 15.3263 21.8586 18.8332 18.4816C29.8733 7.70123 45.0697 1.07715 61.6948 1.07715C62.3443 1.07715 62.9937 1.07715 63.6431 1.07715C64.2925 1.07715 65.0718 1.07715 65.7212 1.20703C69.2281 1.4668 72.7349 1.98633 76.1119 2.76564C78.0602 3.28517 80.0085 3.80471 81.8268 4.45413C83.1257 4.84378 84.2946 5.36331 85.5935 5.88285C86.5027 6.2725 87.4118 6.66215 88.321 7.0518C88.4509 7.18169 88.5808 7.18169 88.8406 7.31157C94.8152 10.169 100.27 14.0655 104.946 18.7414C105.596 19.3908 106.245 20.0402 106.894 20.8195C107.284 21.339 107.804 21.7287 108.193 22.2482C108.973 23.0275 109.622 23.9367 110.271 24.716C112.739 27.8332 114.817 31.2102 116.636 34.7171C118.714 38.8734 120.402 43.2894 121.571 47.8353C122.351 52.3813 123 57.3169 123 62.5122Z" fill="url(#paint0_radial_267_4319)"/>
<path fill-rule="evenodd" clip-rule="evenodd" d="M88.4509 7.18144C88.1911 7.18144 88.0612 7.18144 87.8015 7.31133C87.152 7.44121 86.5026 7.31133 85.8532 7.18144C85.3337 7.05156 85.0739 6.79179 84.4245 6.79179C83.6452 6.66191 82.9958 6.40214 82.2165 6.27226C81.4372 6.14237 80.7877 5.88261 80.0084 5.62284C79.359 5.36307 79.0993 5.49295 78.5797 5.62284C78.0602 5.75272 77.6705 5.49295 77.151 5.36307C76.6315 5.1033 75.982 5.1033 75.4625 4.97342C73.9039 4.71365 72.3453 4.19411 70.7867 3.80446C69.8775 3.54469 68.9683 3.54469 67.9292 3.54469C67.1499 3.54469 66.5005 3.80446 65.7212 3.80446C65.2017 3.80446 64.812 3.67458 64.2925 3.67458C63.773 3.5447 63.2534 3.67458 62.7339 3.67458C61.9546 3.5447 61.5649 3.41481 60.7856 3.67458C60.1362 3.80446 59.7466 3.80446 59.0972 3.93434C58.4477 3.93434 57.6684 4.19412 57.019 4.324C55.8501 4.58377 54.5512 4.84353 53.3822 4.84353C52.6029 4.84353 51.5639 4.58376 50.9145 4.84353C50.5248 4.97342 50.265 5.49295 49.8754 5.75272C49.226 6.40214 48.5766 6.92168 48.057 7.5711C47.5375 8.22052 47.0179 8.99982 47.0179 9.90901C47.0179 10.6883 47.4076 11.5975 47.7972 12.2469C48.1869 13.0262 48.3168 13.6756 47.5375 14.1952C46.6283 14.8446 45.4593 15.3641 44.4203 15.7538C43.641 16.0135 42.9915 16.1434 42.472 15.6239C42.2122 15.494 42.0823 15.1044 41.8226 14.8446C41.5628 14.7147 41.1732 14.8446 40.9134 14.9745C40.1341 15.2342 39.3548 15.494 38.5755 15.6239C38.0559 15.7538 37.6663 16.0135 37.1468 16.0135C36.6272 16.1434 36.2376 15.7538 35.5882 15.8837C34.8089 16.0135 33.8997 16.4032 33.1204 16.4032C32.471 16.4032 31.6917 16.1434 31.1721 15.8837C30.9124 15.7538 30.7825 15.494 30.3928 15.6239C30.133 15.6239 29.7434 16.0135 29.6135 16.2733C29.3537 16.5331 29.3537 16.9227 29.094 17.1825C28.8342 17.5722 28.7043 17.8319 28.4446 18.2216C28.0549 18.871 27.6653 19.5204 27.2756 20.1698C27.0158 20.5595 26.7561 21.2089 26.3664 21.5985C26.2365 21.8583 25.8469 21.9882 25.5871 22.1181C24.9377 22.5077 24.2883 23.0273 23.6388 23.4169C22.4699 24.3261 21.301 25.3652 20.132 26.2744C19.2228 26.9238 17.924 27.3134 16.8849 27.833C16.2355 28.0927 15.5861 28.3525 14.9366 28.6123C14.6769 28.7422 14.2872 28.7422 14.1573 29.0019C13.8976 29.2617 13.7677 29.5215 13.6378 29.9111C13.1183 30.5605 12.4688 31.3398 12.0792 32.1192C11.8194 32.6387 11.6895 33.0283 11.4298 33.5479C11.17 34.1973 10.7803 34.8467 10.6505 35.626C10.1309 37.0547 10.1309 38.6133 9.48151 40.0421C9.22174 40.8214 8.70221 41.6007 8.31256 42.38C7.66314 43.6788 7.53324 45.2374 7.40336 46.6661C7.27347 47.4454 7.40336 48.4845 7.53325 49.2638C7.66313 50.173 7.66314 51.0822 7.66314 51.9914C7.66314 52.9006 7.01373 53.9396 6.49419 54.5891C5.97466 55.2385 5.06546 55.4982 4.41604 56.1477C3.89651 56.6672 3.24708 57.1867 2.98731 57.966C2.85743 58.2258 2.98731 58.6155 2.98731 59.0051C2.85743 59.7844 2.59768 60.4338 2.59768 61.2131C2.46779 62.1223 2.46779 63.0315 2.46779 64.0706C2.46779 64.5901 2.46779 64.9798 2.46779 65.4993C2.46779 66.0188 2.59765 66.4085 2.72753 66.7981C2.72753 67.0579 2.72753 67.4476 2.72753 67.7073C2.72753 68.097 2.98731 68.4866 2.98731 68.7464C3.24708 69.6556 3.37696 70.4349 3.50684 71.3441C3.63672 72.1234 4.02638 72.9027 4.15626 73.682C4.54591 74.7211 4.6758 75.7601 4.93557 76.9291C5.06545 77.7084 5.06547 78.6176 5.19535 79.3969C5.32524 80.0463 5.4551 80.6957 5.4551 81.3451C5.4551 82.3842 5.19535 83.2934 5.19535 84.3325C5.19535 86.021 5.84476 87.7094 6.23441 89.3979C6.36429 89.9175 6.49416 90.3071 6.62405 90.8267C2.33788 82.5141 0 73.0326 0 63.0315C0 50.8224 3.50686 39.5225 9.6114 30.041C12.2091 26.0146 15.1964 22.248 18.7033 19.0009C29.7434 8.22051 44.9398 1.59644 61.5649 1.59644C62.8638 1.59644 64.2925 1.59644 65.5913 1.72632C73.6441 1.59644 81.4371 3.67458 88.4509 7.18144Z" fill="url(#paint1_linear_267_4319)"/>
<path opacity="0.1" fill-rule="evenodd" clip-rule="evenodd" d="M65.3301 91.3468C65.3301 91.3468 71.045 99.7893 78.7081 106.673C86.3712 113.557 87.4103 118.233 87.4103 118.233C87.4103 118.233 101.827 112.258 112.088 97.9709C122.349 83.8135 65.3301 91.3468 65.3301 91.3468Z" fill="black" fill-opacity="0.5"/>
<path opacity="0.4" fill-rule="evenodd" clip-rule="evenodd" d="M75.7223 2.63575C72.3453 1.85645 68.9683 1.33692 65.3316 1.07715C64.6822 1.07715 63.9029 0.947266 63.2534 0.947266C64.6822 1.72657 66.1109 3.15529 66.3706 4.7139C66.8902 7.31158 67.7994 9.64949 68.189 12.1173C68.7086 14.5851 68.5787 17.7023 67.4097 19.9103C66.7603 21.339 65.8511 22.508 64.6822 23.6769C63.9029 24.4563 63.1236 24.9758 62.604 26.0149C62.0845 27.0539 61.4351 27.9631 60.7857 28.8723C59.8765 30.301 58.8374 31.7297 57.6684 33.0286C57.2788 33.5481 56.8892 33.8079 56.4995 34.3274C56.1098 34.9768 55.8501 35.6263 55.3305 36.1458C54.1616 37.3148 52.4731 38.0941 51.0444 38.6136C49.0961 39.3929 47.4076 40.1722 45.5892 41.2113C42.9915 42.64 40.7835 44.3285 37.7962 44.4584C36.7571 44.4584 35.7181 44.3285 34.679 44.4584C33.3801 44.5883 32.2112 45.1078 31.0423 45.3675C30.0032 45.6273 28.8342 45.7572 27.7952 46.017C25.9768 46.2767 24.548 46.9262 22.8596 47.3158C20.6515 47.8353 18.3136 47.7055 15.9757 48.0951C13.8976 48.3549 12.2091 48.6146 10.1309 48.0951C7.01373 47.3158 5.32523 45.8871 5.97465 42.5101C6.3643 40.3021 6.23445 38.6136 5.19538 37.055C2.72758 42.3802 1.03907 48.225 0.259766 54.1997C1.68849 54.8491 3.37698 55.1088 4.8057 55.2387C9.35164 55.7583 14.2872 53.6801 18.4435 52.1215C20.5216 51.3422 22.7297 50.1733 25.0676 49.9135C27.5354 49.6537 29.6135 49.9135 32.0813 49.3939C40.3939 47.3158 48.5766 44.4584 56.1098 40.0423C59.227 38.2239 60.5259 35.6263 62.7339 33.0286C64.5523 30.6907 66.7603 28.8723 68.9683 26.924C71.1763 24.9758 73.1246 23.1574 74.4235 20.5597C75.8522 17.8322 77.0211 14.715 77.6706 11.7276C78.32 8.35065 77.4108 5.23343 75.7223 2.63575ZM75.3327 10.9483C75.2028 11.5977 75.0729 12.377 74.943 13.0265C74.4235 14.715 73.3844 16.4035 71.8258 17.1828C71.1764 17.5724 70.1373 17.3126 69.7476 16.6632C69.4879 16.2736 69.4879 15.754 69.4879 15.3644C69.358 14.4552 69.2281 13.6759 69.2281 12.7667C69.2281 10.6886 69.2281 8.61041 68.9683 6.53227C69.2281 7.70123 68.9684 4.7139 70.7867 3.93459C71.6959 3.54494 72.9947 3.93459 73.6441 4.58401C74.4235 5.4932 74.6832 6.92193 74.943 7.961C75.2028 9.12995 75.4625 9.90925 75.3327 10.9483Z" fill="url(#paint2_linear_267_4319)" fill-opacity="0.5"/>
<path opacity="0.4" fill-rule="evenodd" clip-rule="evenodd" d="M66.3705 109.271C66.2406 109.271 65.9809 109.4 65.851 109.4L67.0199 109.53C67.0199 109.4 66.7602 109.271 66.3705 109.271ZM66.3705 109.271C66.2406 109.271 65.9809 109.4 65.851 109.4L67.0199 109.53C67.0199 109.4 66.7602 109.271 66.3705 109.271ZM121.182 47.5757C121.182 49.1343 120.662 50.8228 120.662 52.3814C120.662 54.5894 120.272 56.2779 119.753 58.356C119.363 59.7848 118.584 60.8238 118.194 62.2526C117.675 63.8112 116.895 65.2399 116.116 66.6686C114.557 69.5261 112.869 72.5134 112.22 75.7605C111.57 78.7478 111.44 81.2156 110.012 83.9432C108.583 86.5408 106.505 88.7489 104.946 91.3466C104.297 92.5155 103.777 92.5155 102.608 93.2948C101.439 94.204 100.27 95.5028 99.1013 96.412C96.6335 98.3603 94.2956 99.789 91.1783 100.958C89.2301 101.737 87.4117 102.257 85.3336 102.517C84.0347 102.776 82.7359 102.517 81.437 102.776C79.3589 103.166 77.4107 103.686 75.3325 104.335C72.0854 105.374 68.7085 106.023 65.4614 107.062C63.1234 107.712 60.9154 108.231 58.5775 108.621C57.1488 108.881 55.9798 109.66 54.5511 109.4C53.1224 109.141 51.6936 108.621 50.2649 108.102C48.4466 107.582 46.8879 107.452 44.9397 107.452C42.342 107.452 39.2248 107.842 36.4972 107.322C33.5099 106.803 30.6525 105.894 27.6651 105.374C25.8468 104.984 24.5479 104.205 22.8594 103.556C21.3008 102.776 19.7422 102.646 18.0537 102.127C16.3653 101.607 14.6768 100.828 12.9883 100.438C15.586 103.815 18.5733 106.933 21.9503 109.66C30.6525 117.064 41.4328 121.999 53.3821 123.558C54.9407 123.688 56.4994 123.947 58.1879 123.947C61.6947 123.168 65.0717 122.129 68.5786 121.09C74.4233 119.272 79.4888 115.765 85.3336 114.076C87.5416 113.427 89.4899 112.777 91.4381 111.738C92.9967 110.959 94.5553 110.829 95.9841 110.18C101.439 107.842 105.466 102.646 107.933 97.4511C108.972 95.1132 110.012 92.5155 112.09 90.6971C112.869 89.9178 113.908 89.3983 114.557 88.4891C115.337 87.5799 115.856 86.5409 116.636 85.5018C117.934 83.8133 119.103 81.9949 120.272 80.3064C120.402 80.0467 120.532 79.9168 120.662 79.657C122.221 74.2019 123 68.487 123 62.6422C123 57.317 122.35 52.3814 121.182 47.5757ZM64.682 109.66C64.9418 109.53 65.2016 109.271 65.4614 109.141C65.7211 109.011 66.1107 109.141 66.3705 109.271C66.8901 109.141 67.2797 109.141 67.6694 109.4C67.9291 109.53 68.3188 109.79 68.4487 110.05C68.5785 110.31 68.4487 110.439 68.1889 110.699C67.9292 110.959 67.7993 110.959 67.4096 110.959C66.7602 111.089 66.1108 111.219 65.3315 111.089C64.9418 111.089 64.2924 110.959 64.0326 110.699C64.0326 110.18 64.4223 109.92 64.682 109.66ZM68.7085 117.713C68.3188 118.233 67.9291 118.752 67.4096 119.012C66.8901 119.401 66.3705 119.531 65.9809 119.921C64.682 120.57 63.3832 121.35 62.0844 121.739C61.5648 121.869 60.9154 121.869 60.3959 121.869C59.7465 121.999 58.9672 121.999 58.3177 121.999C57.5384 121.999 56.6293 122.129 55.85 122.259C55.0707 122.259 54.1614 122.389 53.3821 122.389C51.9534 122.519 50.7845 122.259 49.4856 121.739C48.3167 121.35 47.1477 120.7 46.1087 120.051C45.3294 119.531 44.6799 118.882 44.1604 118.233C43.511 117.713 43.1213 117.064 42.7317 116.284C42.6018 116.024 42.4719 115.765 42.6018 115.375C42.6018 115.245 42.7317 115.115 42.7317 115.115C42.9914 114.985 43.2512 114.726 43.3811 114.726C43.7707 114.466 44.2903 114.466 44.8098 114.336C45.9788 114.206 47.1477 114.336 48.3167 114.466C48.9661 114.466 49.6155 114.596 50.2649 114.466C51.1741 114.336 52.0833 114.076 52.8626 113.816C54.9407 113.297 57.0189 112.777 59.0971 112.648C61.1752 112.388 63.5131 112.128 65.5912 112.518C66.3705 112.648 67.4096 112.907 68.059 113.297C68.5786 113.687 68.9682 114.206 69.228 114.726C69.6176 115.765 69.3579 116.804 68.7085 117.713ZM85.0738 112.388C84.6842 112.777 84.1646 113.037 83.6451 113.427C82.9957 113.946 82.3463 114.206 81.6968 114.596C81.1773 114.985 80.5279 115.245 80.0083 115.505C79.3589 115.765 78.8394 116.024 78.19 116.414C77.5405 116.674 76.8911 116.934 76.2417 117.193C75.7222 117.323 75.2027 117.583 74.6831 117.453C74.2935 117.323 73.7739 117.193 73.5141 116.934C72.9946 116.414 73.1245 115.895 73.2544 115.635C73.2544 115.245 73.1245 114.596 73.2544 114.076C73.3843 113.816 73.644 113.427 73.7739 113.167C74.2934 112.128 75.0728 111.479 75.8521 110.699C76.5015 110.05 77.2808 109.53 78.19 109.141C79.229 108.751 80.5279 108.621 81.5669 108.491C82.7359 108.361 84.814 108.231 85.4635 109.66C85.8531 110.569 85.7232 111.479 85.0738 112.388ZM67.1498 109.4C67.0199 109.4 66.7602 109.271 66.5004 109.141C66.3705 109.141 66.1108 109.271 65.9809 109.271L67.1498 109.4Z" fill="url(#paint3_linear_267_4319)" fill-opacity="0.5"/>
<path opacity="0.4" fill-rule="evenodd" clip-rule="evenodd" d="M116.247 34.4571V34.7169C116.117 36.4054 115.468 37.5743 114.818 39.1329C114.299 40.4318 113.779 41.4708 113.13 42.6398C112.091 44.5881 111.571 46.4064 110.792 48.6145C109.493 51.8616 108.973 55.3684 107.025 58.3557C105.337 61.0833 104.817 64.3304 103.518 67.1879C101.96 70.435 99.4919 72.643 96.8943 74.9809C95.7253 76.02 94.6862 77.3188 93.6472 78.4878C92.4782 79.6567 91.6989 81.2153 90.2702 82.2544C87.4128 84.3325 84.1656 86.1509 81.3082 88.3589C79.6197 89.6578 78.4508 91.4761 76.5025 92.5152C74.6841 93.6842 72.606 94.4635 70.7876 95.5025C69.0991 96.5416 67.4107 97.5807 65.5923 98.36C63.5141 99.1393 61.8256 98.8795 59.6176 99.0094C57.2797 99.1393 54.8119 99.7887 52.6039 100.568C50.7855 101.217 49.2269 101.867 47.2787 101.217C45.9798 100.828 44.9407 99.9186 43.6419 99.6588C40.5247 99.0094 37.1477 99.6588 34.0305 99.5289C31.5627 99.399 28.965 98.8795 26.4972 98.36C24.1593 97.9703 22.2111 96.2818 20.003 95.6324C17.1456 94.8531 13.8985 95.5025 11.3008 94.4635C10.1319 94.0738 9.09279 93.1646 8.1836 92.5152C7.92383 92.3853 7.79395 92.2554 7.53418 92.1256C7.14453 91.4761 6.75489 90.6968 6.36523 90.0474C7.01465 90.3072 7.66407 90.5669 8.31349 90.9566C11.8204 92.6451 16.2364 92.3853 20.003 93.0347C24.2892 93.814 28.5754 94.8531 32.8615 95.3727C34.6799 95.6324 36.3684 95.5025 38.1868 95.3727C40.6546 95.1129 43.1223 95.1129 45.5901 94.7232C49.7464 93.9439 53.9027 91.9957 58.1889 92.5152C58.9682 92.6451 59.8774 93.0347 60.6567 93.0347C61.8256 93.0347 62.7348 91.9957 63.644 91.3463C65.3325 90.3072 67.1509 90.4371 68.7095 89.0083C70.1382 87.5796 71.8267 86.6704 73.6451 85.7612C78.3209 83.4233 82.0875 79.5268 85.8541 75.7602C88.9713 72.643 91.9587 69.3959 94.0368 65.6292C96.115 61.8626 95.7253 57.3167 97.2839 53.4202C98.4529 50.5627 99.3621 47.965 101.18 45.4972C102.09 44.3283 103.129 43.2892 104.038 42.1203C105.077 40.9513 105.597 39.6525 106.376 38.2237C107.155 36.6651 108.324 35.3663 108.973 33.6778C109.623 32.1192 109.493 30.8204 109.493 29.1319C109.493 27.4434 109.493 25.625 109.493 23.8066C112.221 27.5733 114.429 30.9502 116.247 34.4571Z" fill="url(#paint4_linear_267_4319)" fill-opacity="0.5"/>
<path opacity="0.4" fill-rule="evenodd" clip-rule="evenodd" d="M106.505 20.5599C105.855 19.9105 105.206 19.1312 104.557 18.4818C99.8807 13.806 94.4255 10.0394 88.4509 7.05203C88.321 6.92214 88.1911 6.92214 87.9314 6.79226C87.0222 6.40261 86.113 6.01296 85.2038 5.62331C83.9049 5.10377 82.736 4.58423 81.4372 4.19458C81.8268 4.45435 82.3464 4.71412 82.4762 4.71412C83.2556 5.10377 83.905 5.36354 84.4245 6.01296C84.944 6.66238 85.2038 7.18191 85.2038 8.0911C85.2038 8.8704 85.3337 9.77959 85.4636 10.5589C85.5935 11.3382 85.9831 11.9876 86.113 12.7669C86.2429 13.1566 86.2429 13.5462 86.3728 14.0658C86.6325 15.1048 87.0222 16.1439 87.2819 17.183C87.6716 19.1312 86.6325 20.6898 85.9831 22.3783C84.944 25.1059 84.2946 27.8334 83.3854 30.6909C82.736 32.8989 81.5671 35.1069 79.8786 36.7954C78.1901 38.354 75.7223 38.7437 74.2935 40.4322C72.9947 41.9908 71.4361 43.4195 69.6177 44.1988C67.5396 45.2379 65.2017 46.0172 62.9937 46.6666C61.4351 47.1861 59.7466 47.1861 58.0581 47.5758C55.9799 48.0953 54.1616 49.1344 52.3432 49.9137C50.265 50.8229 48.4467 51.8619 46.3685 52.7711C44.2904 53.6803 42.472 54.8493 40.3938 55.6286C39.3548 56.0182 38.3157 56.278 37.4065 56.5378C35.3284 57.3171 33.3802 58.6159 31.1721 58.8757C30.3928 59.0056 29.6135 59.1354 28.8342 59.1354C28.1848 59.1354 27.6653 59.2653 27.1457 59.3952C25.1975 60.1745 24.0285 62.2527 21.8205 62.3825C19.7423 62.3825 17.7941 62.2527 15.8458 62.5124C14.8067 62.6423 13.8976 62.5124 12.9884 62.6423C12.7286 62.6423 12.339 62.7722 12.0792 62.6423C11.8194 62.5124 11.4298 62.2527 11.0401 61.9929C10.2608 61.6032 9.6114 61.0837 8.96198 60.5642C7.66314 59.5251 5.97466 60.1745 4.54594 59.7849C4.15628 59.655 3.50686 59.7849 3.1172 59.5251C2.20802 59.0056 1.03905 57.8366 0.259744 57.1872C0.12986 58.8757 0 60.5642 0 62.2527C0 65.24 0.259768 68.0974 0.649419 70.9549C0.779303 72.2537 1.03907 73.5526 1.29884 74.9813C1.68849 76.7997 2.20799 78.7479 2.72753 80.4364C3.50683 82.9042 4.41603 85.372 5.4551 87.7099C7.14359 87.9697 8.83207 88.2294 10.5206 87.9697C12.9884 87.58 15.3263 87.1904 17.7941 87.3202C20.132 87.4501 22.2101 88.2294 24.4181 88.6191C26.8859 89.0087 29.4836 89.3984 32.0813 89.5283C34.4192 89.6581 36.7571 89.9179 38.9652 90.1777C40.6536 90.4375 42.472 90.6972 44.1605 90.8271C48.7064 91.0869 53.1225 89.9179 57.5385 89.5283C59.7466 89.2685 61.9546 88.749 64.1626 88.2294C65.4615 87.9697 66.7603 87.58 67.9292 86.8007C69.4878 85.7616 70.5269 84.3329 71.8258 83.164C73.3844 81.8651 74.943 80.5663 76.5016 79.3973C77.8004 78.3583 79.0993 77.1893 80.528 76.2801C81.5671 75.6307 82.736 74.8514 83.7751 74.0721C85.7234 72.5135 87.4118 70.6951 89.1003 68.7469C91.4382 66.0193 92.3474 62.2527 93.2566 58.8757C94.1658 55.7585 94.6853 52.7711 96.3738 49.9137C97.1531 48.6149 97.8025 47.0562 98.1922 45.4976C98.4519 44.5885 98.5818 43.4195 98.9715 42.5103C99.6209 41.0816 101.05 39.9126 101.829 38.6138C102.478 37.5747 103.258 36.5357 103.647 35.2368C104.556 32.8989 105.206 30.561 105.596 27.9633C105.855 26.1449 106.505 24.3266 107.024 22.5082C107.154 22.2484 107.154 21.8588 107.284 21.599C107.284 21.4691 106.894 20.9496 106.505 20.5599ZM26.3664 62.6423C26.4963 62.3825 28.8342 61.4734 29.094 61.3435C29.094 61.3435 29.094 61.3435 28.9641 61.3435L27.4055 61.9929C29.094 61.4734 32.0813 63.1618 30.6526 64.9802C30.2629 65.4998 29.094 65.7595 28.4446 65.8894C27.7951 66.0193 27.4055 65.7595 27.0158 65.24C26.6262 64.7205 26.3664 63.9412 26.3664 63.2917C26.3664 63.1619 26.3664 62.7722 26.3664 62.6423ZM8.05278 79.1376C6.2344 78.618 5.06544 77.9686 4.02637 76.41C3.24706 75.3709 2.72755 74.4617 2.46779 73.2928C2.3379 72.2537 1.94823 71.4744 2.208 70.4353C2.33789 69.656 2.72755 68.7469 3.1172 68.0974C3.50686 67.3181 4.15626 66.4089 4.15626 66.1492C5.97463 66.0193 7.66312 65.8894 9.35161 65.8894C11.2999 65.8894 13.378 66.1492 15.3263 66.1492C16.2355 66.1492 17.1447 66.1492 18.0538 66.0193C18.963 65.8894 19.7423 65.6296 20.6515 65.4998C22.2101 65.24 23.6388 65.1101 25.0676 65.7595C26.1066 66.2791 26.6262 67.5779 27.1457 68.617C27.4055 69.2664 27.6652 69.656 27.6652 70.4353C27.6652 71.3445 27.6652 72.1238 27.5354 72.9031C27.5354 73.1629 27.4055 73.5526 27.4055 73.8123C26.1066 76.5399 22.7297 77.4491 20.132 78.4881C16.2355 80.0468 11.9493 80.1766 8.05278 79.1376ZM35.7181 85.1122C34.9388 87.1904 31.5618 87.8398 29.6135 87.9697C28.7043 87.9697 27.5354 87.8398 26.6262 87.3202C26.1067 87.0605 25.717 86.5409 25.3274 86.0214C25.0676 85.6318 24.6779 84.9823 23.6388 85.2421C23.8986 84.0731 24.1584 83.0341 24.6779 81.995C25.0676 81.4755 25.5871 81.0858 26.1066 80.5663C27.0158 79.787 28.0549 79.0077 29.094 78.4881C30.7825 77.579 32.6008 78.2284 34.1594 79.0077C35.3284 79.5272 36.1077 80.3065 36.3675 81.4755C36.7571 82.9042 36.2376 83.8134 35.7181 85.1122ZM58.5776 84.7226C57.9282 86.1513 57.019 86.5409 55.7202 87.3202C54.1616 88.0995 52.0834 88.749 50.3949 88.749C49.4857 88.749 48.5765 88.3593 47.7972 87.9697C47.2777 87.7099 46.6283 87.58 46.2386 87.1904C45.0697 86.0214 44.8099 84.4628 45.5892 84.7226C45.0697 83.6835 44.8099 82.6444 44.68 81.6054C44.9398 81.4755 45.0697 81.2157 45.0697 80.9559C45.7191 79.787 46.888 78.7479 48.1869 78.0985C50.265 76.9295 52.9926 76.6698 55.3305 77.7088C56.3696 78.0985 57.019 78.618 57.6684 79.3973C58.0581 79.787 58.4477 80.0467 58.8374 80.5663C59.227 81.6054 58.9672 83.5536 58.5776 84.7226ZM65.4615 84.4628C65.0718 84.7226 64.4224 85.2421 64.0327 85.2421C63.6431 85.1122 62.9937 84.4628 62.9937 83.9433L62.7339 83.6835C63.2534 82.7743 63.773 81.995 64.2925 81.0858C65.0718 81.4755 65.8511 81.3456 66.3706 82.2548C67.02 83.164 66.1109 83.9433 65.4615 84.4628ZM82.9958 43.5494C82.3464 44.4586 81.4372 45.3678 80.3981 45.7574C79.0993 46.277 77.2809 46.7965 77.151 44.7183C77.151 43.5494 77.2809 42.6402 77.8004 41.6011C78.5797 40.0425 79.2291 39.6529 80.7877 38.8736C81.3073 38.8736 81.9567 39.1333 82.3464 39.2632C83.1257 39.523 83.905 40.3023 84.0348 41.2115C84.1647 42.1207 83.5153 42.9 82.9958 43.5494ZM99.2313 34.8472C98.5818 36.9253 97.6727 38.8736 96.7635 40.6919C95.7244 43.0299 95.5945 45.4976 94.9451 47.9654C94.6853 49.3942 93.906 50.9528 92.6072 51.4723C91.9578 51.7321 91.4382 51.6022 90.7888 51.6022C90.1394 51.6022 89.1003 51.862 89.1003 52.3815C88.7106 51.3424 88.1911 50.0436 87.9314 49.0045C87.6716 47.8356 87.5417 46.5367 87.4118 45.2379C87.1521 43.939 87.1521 42.6402 87.0222 41.3414C86.8923 40.1724 86.6325 38.8736 86.6325 37.7046C86.6325 33.6782 88.9704 28.6127 92.7371 26.7944C93.906 26.2748 95.075 26.0151 96.3738 26.1449C97.8025 26.4047 98.7117 26.7944 99.3612 28.2231C100.14 30.1714 99.7508 32.769 99.2313 34.8472Z" fill="url(#paint5_linear_267_4319)" fill-opacity="0.5"/>
<path opacity="0.4" fill-rule="evenodd" clip-rule="evenodd" d="M81.3076 38.6138C81.1777 38.7437 80.918 38.7436 80.7881 38.8735C80.3984 38.8735 80.1387 38.7436 79.8789 38.8735L81.3076 38.6138Z" fill="url(#paint6_linear_267_4319)" fill-opacity="0.5"/>
<path opacity="0.4" fill-rule="evenodd" clip-rule="evenodd" d="M4.02732 66.1489C3.89744 66.1489 3.76758 66.1489 3.76758 66.1489C4.02735 66.019 4.02732 66.019 4.02732 66.1489Z" fill="url(#paint7_linear_267_4319)" fill-opacity="0.5"/>
<path opacity="0.3" fill-rule="evenodd" clip-rule="evenodd" d="M26.3653 113.167C26.3653 113.167 31.9503 115.245 35.9767 114.076C35.9767 114.076 37.5353 100.958 32.5997 92.5153C27.6641 84.0728 19.2217 96.8014 19.2217 96.8014L17.2734 104.854C17.2734 104.854 21.9493 110.439 26.3653 113.167Z" fill="black" fill-opacity="0.5"/>
<path fill-rule="evenodd" clip-rule="evenodd" d="M12.7285 116.024C12.8584 116.154 12.9883 116.284 12.9883 116.544C12.7285 116.544 12.7285 116.414 12.7285 116.154C12.7285 115.895 12.8584 116.024 12.9883 115.765C12.9883 115.765 12.9883 115.765 13.1182 115.765L12.7285 116.024Z" fill="#0EDBFF"/>
<defs>
<radialGradient id="paint0_radial_267_4319" cx="0" cy="0" r="1" gradientUnits="userSpaceOnUse" gradientTransform="translate(23.3108 33.6858) scale(98.8436 98.8436)">
<stop offset="0.00558659" stop-color="#60DBFF"/>
<stop offset="0.0937306" stop-color="#60D5FF"/>
<stop offset="0.211" stop-color="#5FC4FF"/>
<stop offset="0.3446" stop-color="#5DA9FF"/>
<stop offset="0.4903" stop-color="#5A82FF"/>
<stop offset="0.6442" stop-color="#5751FF"/>
<stop offset="0.6844" stop-color="#5643FF"/>
<stop offset="0.7432" stop-color="#563DF8"/>
<stop offset="0.8282" stop-color="#552EE5"/>
<stop offset="0.9287" stop-color="#5315C6"/>
<stop offset="1" stop-color="#5200AB"/>
</radialGradient>
<linearGradient id="paint1_linear_267_4319" x1="-0.114558" y1="45.5852" x2="88.401" y2="45.5852" gradientUnits="userSpaceOnUse">
<stop offset="0.0111732" stop-color="#81E0FF"/>
<stop offset="0.3224" stop-color="#82DDFF"/>
<stop offset="0.5506" stop-color="#86D4FF"/>
<stop offset="0.7523" stop-color="#8BC4FF"/>
<stop offset="0.9375" stop-color="#94ADFF"/>
<stop offset="1" stop-color="#97A4FF"/>
</linearGradient>
<linearGradient id="paint2_linear_267_4319" x1="0.446669" y1="28.1685" x2="77.8325" y2="28.1685" gradientUnits="userSpaceOnUse">
<stop stop-color="#B8C2FF"/>
<stop offset="1" stop-color="#7D72B3"/>
</linearGradient>
<linearGradient id="paint3_linear_267_4319" x1="13.0063" y1="85.7704" x2="122.953" y2="85.7704" gradientUnits="userSpaceOnUse">
<stop stop-color="#B8C2FF"/>
<stop offset="1" stop-color="#7D72B3"/>
</linearGradient>
<linearGradient id="paint4_linear_267_4319" x1="6.51317" y1="63.0285" x2="116.239" y2="63.0285" gradientUnits="userSpaceOnUse">
<stop stop-color="#B8C2FF"/>
<stop offset="1" stop-color="#7D72B3"/>
</linearGradient>
<linearGradient id="paint5_linear_267_4319" x1="-0.11183" y1="47.695" x2="107.744" y2="47.695" gradientUnits="userSpaceOnUse">
<stop stop-color="#B8C2FF"/>
<stop offset="1" stop-color="#7D72B3"/>
</linearGradient>
<linearGradient id="paint6_linear_267_4319" x1="79.7932" y1="38.8046" x2="81.2737" y2="38.8046" gradientUnits="userSpaceOnUse">
<stop stop-color="#E8DDFF"/>
<stop offset="1" stop-color="#AA8AD8"/>
</linearGradient>
<linearGradient id="paint7_linear_267_4319" x1="3.74667" y1="66.1627" x2="4.05408" y2="66.1627" gradientUnits="userSpaceOnUse">
<stop stop-color="#E8DDFF"/>
<stop offset="1" stop-color="#AA8AD8"/>
</linearGradient>
</defs>
</svg>
