<svg width="164" height="164" viewBox="0 0 164 164" fill="none" xmlns="http://www.w3.org/2000/svg">
<path fill-rule="evenodd" clip-rule="evenodd" d="M164.001 81.9134C164.001 89.8796 162.962 97.4995 160.883 104.6C156.727 119.147 148.588 131.962 137.851 142.006C130.231 149.107 121.052 154.822 111.181 158.631C102.176 162.095 92.3047 164 82.0872 164C80.7018 164 79.1432 164 77.7577 163.827C75.6796 163.654 73.4283 163.48 71.3502 163.307C55.4177 161.229 41.0439 154.648 29.441 144.777C25.1115 141.14 21.1284 136.984 17.4917 132.482C14.894 129.191 12.4695 125.554 10.2182 121.744C9.69862 120.879 9.17911 120.013 8.83275 118.974C8.83275 118.974 8.83275 118.974 8.83275 118.8C8.31321 117.761 7.79367 116.895 7.44732 115.856C6.06189 112.739 4.84963 109.449 3.81056 106.158C3.11785 103.734 2.42515 101.309 1.90561 98.8849C1.55926 97.1531 1.2129 95.4213 1.03972 93.5164C0.520185 89.7064 0.173828 85.8965 0.173828 81.9134C0.173828 79.6621 0.347001 77.4108 0.52018 75.1594C0.693358 73.774 0.866542 72.3886 1.03972 71.0032C2.07879 62.8638 4.33009 55.2439 7.62048 48.1436C9.17909 44.68 11.0841 41.2165 13.1622 37.9261C16.6258 32.5575 20.6089 27.5354 25.2847 23.2059C40.0049 8.83209 60.2667 0 82.4336 0C83.2995 0 84.1654 0 85.0313 0C85.8972 0 86.9362 1.05674e-05 87.8021 0.173189C92.4779 0.519546 97.1537 1.21225 101.483 2.25132C104.081 2.94404 106.679 3.63676 109.103 4.50265C110.835 5.02219 112.393 5.71488 114.125 6.4076C115.337 6.92713 116.55 7.44668 117.762 7.96622C117.935 8.1394 118.108 8.13939 118.455 8.31257C126.421 12.1225 133.694 17.3179 139.929 23.5523C140.795 24.4182 141.661 25.2841 142.526 26.15C143.046 26.8427 143.739 27.3622 144.258 28.0549C145.297 29.094 146.163 30.3062 147.029 31.3453C150.32 35.5016 153.09 40.0042 155.515 44.68C158.286 50.2217 160.537 56.1098 162.096 62.171C163.135 68.4055 164.001 74.9862 164.001 81.9134Z" fill="url(#paint0_radial_257_1738)"/>
<path d="M103.041 60.6127C103.041 59.92 105.35 60.3241 106.505 60.6127H111.7C113.778 60.6127 110.834 62.3443 109.102 63.2101C108.236 63.4987 106.158 64.076 104.773 64.076C103.041 64.076 103.041 61.4786 103.041 60.6127Z" fill="url(#paint1_linear_257_1738)"/>
<path fill-rule="evenodd" clip-rule="evenodd" d="M117.935 8.13924C117.588 8.13924 117.415 8.13925 117.069 8.31243C116.203 8.48561 115.337 8.31242 114.471 8.13924C113.778 7.96607 113.432 7.6197 112.566 7.6197C111.527 7.44652 110.661 7.10018 109.622 6.927C108.583 6.75382 107.717 6.40746 106.678 6.06111C105.812 5.71475 105.466 5.88793 104.773 6.06111C104.08 6.23429 103.561 5.88793 102.868 5.71476C102.175 5.3684 101.309 5.36839 100.617 5.19522C98.5385 4.84886 96.4604 4.15616 94.3822 3.63662C93.17 3.29026 91.9578 3.29024 90.5723 3.29024C89.5333 3.29024 88.6674 3.63662 87.6283 3.63662C86.9356 3.63662 86.416 3.46343 85.7233 3.46343C85.0306 3.29025 84.3379 3.46343 83.6452 3.46343C82.6061 3.29025 82.0866 3.11707 81.0475 3.46343C80.1816 3.63661 79.6621 3.6366 78.7962 3.80978C77.9303 3.80978 76.8912 4.15615 76.0253 4.32932C74.4667 4.67568 72.735 5.02203 71.1763 5.02203C70.1373 5.02203 68.7518 4.67567 67.8859 5.02203C67.3664 5.19521 67.02 5.88794 66.5005 6.2343C65.6346 7.10019 64.7687 7.79289 64.076 8.65878C63.3833 9.52468 62.6906 10.5637 62.6906 11.776C62.6906 12.815 63.2101 14.0273 63.7297 14.8932C64.2492 15.9323 64.4224 16.7982 63.3833 17.4909C62.1711 18.3568 60.6124 19.0495 59.227 19.569C58.188 19.9154 57.3221 20.0886 56.6293 19.3959C56.283 19.2227 56.1098 18.7031 55.7635 18.3568C55.4171 18.1836 54.8976 18.3568 54.5512 18.53C53.5121 18.8763 52.4731 19.2227 51.434 19.3959C50.7413 19.569 50.2218 19.9154 49.529 19.9154C48.8363 20.0886 48.3168 19.569 47.4509 19.7422C46.4118 19.9154 45.1996 20.4349 44.1605 20.4349C43.2946 20.4349 42.2555 20.0886 41.5628 19.7422C41.2165 19.569 41.0433 19.2227 40.5237 19.3959C40.1774 19.3959 39.6579 19.9154 39.4847 20.2618C39.1383 20.6081 39.1383 21.1276 38.792 21.474C38.4456 21.9935 38.2724 22.3399 37.9261 22.8594C37.4065 23.7253 36.887 24.5912 36.3675 25.4571C36.0211 25.9766 35.6748 26.8425 35.1552 27.362C34.982 27.7084 34.4625 27.8816 34.1161 28.0548C33.2503 28.5743 32.3844 29.267 31.5185 29.7866C29.9599 30.9988 28.4013 32.3842 26.8427 33.5965C25.6304 34.4624 23.8986 34.9819 22.5132 35.6746C21.6473 36.021 20.7814 36.3674 19.9155 36.7137C19.5692 36.8869 19.0496 36.8869 18.8764 37.2332C18.5301 37.5796 18.3569 37.926 18.1837 38.4455C17.491 39.3114 16.6251 40.3504 16.1056 41.3895C15.7592 42.0822 15.5861 42.6018 15.2397 43.2945C14.8934 44.1604 14.3738 45.0263 14.2006 46.0653C13.5079 47.9703 13.5079 50.0484 12.642 51.9534C12.2957 52.9925 11.6029 54.0315 11.0834 55.0706C10.2175 56.8024 10.0443 58.8805 9.87117 60.7855C9.69799 61.8246 9.87118 63.21 10.0444 64.2491C10.2175 65.4613 10.2175 66.6736 10.2175 67.8858C10.2175 69.0981 9.35164 70.4835 8.65892 71.3494C7.96621 72.2153 6.75395 72.5616 5.88806 73.4275C5.19534 74.1202 4.32947 74.8129 3.98311 75.852C3.80993 76.1983 3.98311 76.7179 3.98311 77.2375C3.80993 78.2765 3.46357 79.1424 3.46357 80.1815C3.29039 81.3937 3.29038 82.606 3.29038 83.9914C3.29038 84.6841 3.29038 85.2037 3.29038 85.8964C3.29038 86.5891 3.46358 87.1086 3.63676 87.6282C3.63676 87.9745 3.63676 88.494 3.63676 88.8404C3.63676 89.3599 3.98311 89.8795 3.98311 90.2258C4.32947 91.4381 4.50263 92.4772 4.67581 93.6894C4.84899 94.7285 5.36853 95.7675 5.5417 96.8066C6.06124 98.192 6.23443 99.5775 6.58079 101.136C6.75396 102.175 6.75396 103.387 6.92714 104.426C7.10032 105.292 7.27349 106.158 7.27349 107.024C7.27349 108.41 6.92714 109.622 6.92714 111.007C6.92714 113.259 7.79304 115.51 8.31257 117.761C8.48575 118.454 8.65893 118.973 8.83211 119.666C3.11722 108.583 0 95.9407 0 82.606C0 66.3272 4.67581 51.2607 12.8152 38.6186C16.2788 33.2501 20.2619 28.2279 24.9377 23.8985C39.6579 9.52466 59.9197 0.692566 82.0866 0.692566C83.8184 0.692566 85.7233 0.692576 87.4551 0.865755C98.1922 0.692576 108.583 3.46343 117.935 8.13924Z" fill="url(#paint2_linear_257_1738)"/>
<path d="M97.847 68.4054C102.003 69.0981 107.66 71.0031 109.97 71.869H115.165C116.896 71.869 126.421 78.7962 128.153 83.1256C129.885 87.4551 135.08 83.1256 139.41 83.1256C143.739 83.1256 133.348 97.8458 129.885 101.309C126.421 104.773 132.482 111.7 133.348 113.432C134.214 115.164 130.751 117.761 129.885 124.688C129.019 131.616 126.421 141.14 124.689 147.202C123.304 152.051 116.608 156.149 113.433 157.592C112.278 158.17 109.277 158.285 106.506 154.129C103.042 148.933 101.31 140.274 100.444 136.811C99.5785 133.347 107.372 115.164 91.7855 113.432C76.1994 111.7 84.8587 126.42 64.9432 111.7C45.0276 96.9799 67.5408 68.4054 69.2726 65.8078C71.0044 63.2101 75.3339 65.8077 83.1269 63.2101C89.3613 61.1319 95.538 62.3442 97.847 63.2101C96.1152 64.6532 93.6907 67.7127 97.847 68.4054Z" fill="url(#paint3_linear_257_1738)"/>
<path d="M12.2035 116.929C12.7708 115.251 10.0763 109.703 8.6582 107.139C9.83997 105.508 12.7708 102.664 15.0398 104.342C17.876 106.44 26.3848 101.545 29.221 102.244C32.0572 102.944 38.4388 103.643 39.1479 105.741C39.8569 107.838 39.8569 112.733 41.2751 114.831C42.4096 116.509 41.2751 121.124 40.566 123.222C40.3296 123.922 39.4315 125.46 37.7297 126.019C35.6026 126.719 40.566 126.719 44.8204 128.117C49.0747 129.516 46.2385 136.508 47.6566 140.005C49.0747 143.501 56.8744 149.794 58.2925 151.193C59.7107 152.591 58.2925 154.689 56.8744 153.99C55.4563 153.291 39.8569 140.704 32.7663 139.305C27.0938 138.187 16.6942 127.185 12.2035 121.824C11.9672 120.891 11.6363 118.607 12.2035 116.929Z" fill="url(#paint4_linear_257_1738)"/>
<path d="M31.1724 48.49V45.0265V40.697C31.1724 38.9653 29.4406 38.9652 27.7088 36.3675C25.977 33.7699 27.7088 34.6357 30.3065 33.7699C32.9042 32.904 32.0383 35.5016 32.0383 36.3675C32.0383 37.2334 35.5018 38.9652 36.3677 38.9652C37.2336 38.9652 40.6972 38.9652 39.8313 40.697C38.9654 42.4288 38.9654 43.2947 36.3677 46.7582C34.2896 49.5291 32.0383 49.0673 31.1724 48.49Z" fill="url(#paint5_linear_257_1738)"/>
<path d="M29.4397 42.4287C30.1324 41.736 26.842 39.2538 25.1103 38.0992C24.8216 39.5424 23.898 42.7751 22.5126 44.1605C20.7808 45.8923 25.1103 45.8923 26.842 46.7582C28.5738 47.6241 28.5738 43.2946 29.4397 42.4287Z" fill="url(#paint6_linear_257_1738)"/>
<path d="M139.408 114.297C141.486 114.297 143.16 110.834 143.737 109.102C144.457 107.37 146.335 107.37 147.201 108.236C148.067 109.102 147.201 118.627 144.603 122.956C142.006 127.286 139.408 126.42 137.676 126.42C135.945 126.42 137.676 122.956 139.408 121.225C141.14 119.493 136.81 114.297 139.408 114.297Z" fill="url(#paint7_linear_257_1738)"/>
<path fill-rule="evenodd" clip-rule="evenodd" d="M115.163 64.0752C115.163 66.8461 113.431 68.116 112.565 68.4047L117.761 71.0031C117.472 70.137 117.761 68.4047 121.225 68.4047C123.389 68.4047 125.338 71.8683 127.286 75.332C129.234 78.7957 131.182 82.2593 133.347 82.2593C137.677 82.2593 148.067 76.1985 150.665 73.6008C152.743 71.5226 149.799 68.1168 148.067 66.6737C147.49 68.4054 144.777 70.3102 138.543 64.0752C130.749 56.2814 133.347 54.5508 138.543 58.014C142.699 60.7845 145.47 60.3231 146.336 59.7461C147.49 59.1687 151.011 58.7067 155.86 61.4779C160.709 64.2491 160.767 83.4142 160.19 92.6504C161.922 85.7233 164.692 69.7908 161.922 61.4779C153.263 35.5008 142.872 25.9763 133.347 17.3174C125.727 10.3903 106.505 3.46339 97.8456 0.865845C95.5365 2.02037 90.5719 5.19531 89.1867 8.65887C87.5593 12.728 86.6964 12.9723 81.5662 14.4251C81.238 14.518 80.8923 14.6159 80.5278 14.7201C76.3434 15.9159 76.2857 15.8732 74.9421 14.8774C74.3394 14.4307 73.4779 13.7923 71.8693 12.9879C68.0126 11.0595 62.7236 13.426 58.1289 15.4819C56.5345 16.1953 55.0238 16.8713 53.6855 17.3174C48.4905 19.0492 44.1606 24.2445 44.1606 25.9763C44.1606 26.5898 43.7259 27.0946 43.3185 27.5678C42.5759 28.4303 41.9238 29.1875 44.1606 30.3058C46.4359 31.4433 48.3371 31.0865 50.3556 30.7076C51.4102 30.5097 52.4968 30.3058 53.6855 30.3058C57.1494 30.3058 55.4169 32.9035 53.6855 34.6353C51.954 36.367 48.4897 37.2329 44.1606 38.0988C41.8465 38.5617 41.5115 40.0142 41.0397 42.0596C40.6289 43.8406 40.1144 46.0711 38.0994 48.4891C35.6093 51.4773 34.7602 52.5558 34.5868 52.8187C33.14 52.8265 30.8488 53.1805 32.9037 54.5508L32.9083 54.5539C35.5044 56.285 38.0974 58.014 34.6355 58.014C33.1215 58.014 32.1039 59.1718 31.1488 60.2586C29.9186 61.6583 28.7922 62.94 26.8424 61.4779C24.2448 59.5299 22.6214 61.9649 20.5109 65.1306C19.8074 66.1859 19.0498 67.3223 18.1839 68.4047C15.9642 71.1793 16.5896 72.8872 17.3251 74.8956C17.7372 76.0211 18.1839 77.2409 18.1839 78.7958C18.1839 81.0369 19.112 80.9578 20.4878 80.8405C21.7698 80.7311 23.4404 80.5887 25.111 82.2593C28.3138 85.4621 34.4781 81.2609 37.4423 79.2407C37.6836 79.0762 37.9038 78.9262 38.0994 78.7958C40.6971 77.064 45.0265 64.0752 44.1606 61.4779C43.4265 59.2757 48.9175 55.8278 52.1883 53.774C52.7751 53.4056 53.2904 53.0821 53.6855 52.8186C55.5576 51.5703 57.4297 53.0209 60.2741 55.225C61.3765 56.0792 62.625 57.0466 64.0762 58.014C67.2615 60.1373 67.1919 60.3081 66.8608 61.1201C66.6519 61.6326 66.3388 62.4003 66.6738 64.0752C67.1068 66.2398 67.5398 65.3739 68.2975 63.8587C69.0551 62.3436 70.1375 60.1791 71.8693 59.7461C75.3329 58.8802 73.6011 55.4167 68.4057 54.5508C63.2104 53.6849 58.015 48.4891 60.6127 48.4891H71.8693C76.1987 48.4891 78.796 51.0872 77.0643 52.8186C75.3325 54.55 83.9913 58.014 86.5891 58.014C88.4859 58.014 87.1509 55.2439 85.6183 52.0637C85.0519 50.8885 84.4586 49.6573 83.9913 48.4891C82.7839 45.4705 85.7859 46.6613 88.3012 47.659C89.3935 48.0923 90.394 48.4891 90.9182 48.4891C92.6497 48.4891 93.5159 50.2209 90.9182 52.8186C88.3205 55.4163 97.8453 58.014 100.443 58.014H110.834C115.163 58.014 115.163 60.6116 115.163 64.0752ZM95.2479 47.6236C97.2683 47.9123 101.656 48.3164 103.041 47.6236C104.426 46.9309 108.814 49.0668 110.834 50.2213C111.989 50.51 114.124 50.7409 113.432 49.3554C112.566 47.6236 107.37 41.5624 103.907 42.4283C100.443 43.2942 94.382 46.7573 95.2479 47.6236Z" fill="url(#paint8_linear_257_1738)"/>
<defs>
<radialGradient id="paint0_radial_257_1738" cx="0" cy="0" r="1" gradientUnits="userSpaceOnUse" gradientTransform="translate(31.1774 43.4507) scale(131.791 131.791)">
<stop offset="0.00558659" stop-color="#0CB9C4"/>
<stop offset="0.2058" stop-color="#0C96C1"/>
<stop offset="0.3613" stop-color="#0B79B7"/>
<stop offset="0.5018" stop-color="#096EA7"/>
<stop offset="0.6334" stop-color="#075E8F"/>
<stop offset="0.7576" stop-color="#044A72"/>
<stop offset="0.8715" stop-color="#003C74"/>
</radialGradient>
<linearGradient id="paint1_linear_257_1738" x1="107.728" y1="60.2302" x2="107.728" y2="64.076" gradientUnits="userSpaceOnUse">
<stop stop-color="#43991F"/>
<stop offset="1" stop-color="#4BFF00" stop-opacity="0"/>
</linearGradient>
<linearGradient id="paint2_linear_257_1738" x1="-0.0571489" y1="59.3168" x2="117.964" y2="59.3168" gradientUnits="userSpaceOnUse">
<stop stop-color="#2CB3FF"/>
<stop offset="0.0885417" stop-color="#2CA6FF"/>
<stop offset="0.2325" stop-color="#2DCAFC"/>
<stop offset="0.3947" stop-color="#32AEF3"/>
<stop offset="0.5382" stop-color="#3A7EE3"/>
<stop offset="0.6707" stop-color="#446ACD"/>
<stop offset="0.7958" stop-color="#4268B1"/>
<stop offset="0.9136" stop-color="#1F598E"/>
<stop offset="1" stop-color="#005D72"/>
</linearGradient>
<linearGradient id="paint3_linear_257_1738" x1="98.6077" y1="62.0626" x2="98.6077" y2="157.885" gradientUnits="userSpaceOnUse">
<stop stop-color="#00EA6B"/>
<stop offset="1" stop-color="#4BFF00" stop-opacity="0"/>
</linearGradient>
<linearGradient id="paint4_linear_257_1738" x1="33.7691" y1="102.175" x2="33.7691" y2="154.129" gradientUnits="userSpaceOnUse">
<stop stop-color="#00EA6B"/>
<stop offset="1" stop-color="#4BFF00" stop-opacity="0"/>
</linearGradient>
<linearGradient id="paint5_linear_257_1738" x1="33.4904" y1="33.5956" x2="33.4904" y2="48.9279" gradientUnits="userSpaceOnUse">
<stop stop-color="#43991F"/>
<stop offset="1" stop-color="#4BFF00" stop-opacity="0"/>
</linearGradient>
<linearGradient id="paint6_linear_257_1738" x1="25.8227" y1="38.0992" x2="25.8227" y2="46.872" gradientUnits="userSpaceOnUse">
<stop stop-color="#43991F"/>
<stop offset="1" stop-color="#4BFF00" stop-opacity="0"/>
</linearGradient>
<linearGradient id="paint7_linear_257_1738" x1="142.242" y1="107.667" x2="142.242" y2="126.491" gradientUnits="userSpaceOnUse">
<stop stop-color="#43991F"/>
<stop offset="1" stop-color="#4BFF00" stop-opacity="0"/>
</linearGradient>
<linearGradient id="paint8_linear_257_1738" x1="89.8708" y1="0.865845" x2="89.8708" y2="92.6504" gradientUnits="userSpaceOnUse">
<stop stop-color="#00EA6B"/>
<stop offset="1" stop-color="#4BFF00" stop-opacity="0"/>
</linearGradient>
</defs>
</svg>
