<svg width="111" height="104" viewBox="0 0 111 104" fill="none" xmlns="http://www.w3.org/2000/svg">
<path d="M26.4463 74.9701C26.4463 74.9701 32.1494 77.4667 33.2313 86.287C33.5214 88.8805 32.238 90.7963 30.4001 92.618C28.5193 94.5579 25.7343 94.5645 24.0512 96.5493C25.2143 94.6702 24.8751 92.4335 26.8637 90.934C23.8947 91.8906 22.3623 94.1977 21.9652 97.2108C21.6109 100.106 20.3274 102.021 17.1366 102.336C18.7622 101.026 18.2127 99.2211 18.1403 97.4289C17.9659 99.5328 16.3486 100.525 14.5073 100.954C12.2643 101.532 11.2935 102.143 9.578 103.848C10.4543 100.768 8.94652 99.0978 12.6844 97.6441C14.7338 96.8623 16.9997 95.4099 15.3558 92.8605C14.8008 97.3415 11.0584 95.9306 8.03819 97.3235C5.90303 98.3417 6.33638 100.024 5.14078 101.624C3.94518 103.224 1.86956 103.487 0 103.478C3.12593 102.605 2.34291 99.084 3.08435 96.5971C3.9157 93.7147 7.71227 93.0582 9.2917 90.4739C7.88007 88.1693 6.49422 90.9576 5.91266 91.8972C4.95976 93.3442 3.72961 94.7442 1.68105 93.9744C6.49546 92.4296 3.22638 86.6153 6.70783 84.3194C8.04371 83.4394 11.4294 84.8011 12.1071 83.2276C13.1645 80.8285 8.99453 82.0719 8.10325 82.6851C8.33638 81.3784 9.36463 80.0925 10.6535 79.4897C12.3053 78.6975 13.4709 79.7624 14.9104 79.4818C16.8291 79.1342 17.0119 76.7122 14.8651 76.656C14.07 76.6352 12.4036 77.984 11.4411 78.277C12.6188 75.8413 15.5029 73.5697 18.1434 73.0023C21.4242 72.2925 23.6925 73.7841 26.4463 74.9701Z" fill="url(#paint0_linear_257_1716)"/>
<path d="M28.0346 78.0527C28.6076 78.697 28.5673 78.7352 29.0936 79.5724C30.2204 81.3248 30.4434 83.8606 28.757 85.3125C27.7944 86.1145 26.6619 85.8898 25.6316 86.4591C24.5425 87.047 24.4925 88.2455 23.912 89.1676C23.8621 88.5096 23.8645 87.9875 23.7171 87.3477C23.6559 86.9603 23.5575 86.5338 23.7083 86.1679C23.2923 86.8597 23.2197 87.6712 22.765 88.3626C22.1878 89.2074 21.3252 89.469 20.3837 89.7685C19.4236 90.0484 18.4901 90.1545 17.4454 90.1435C17.0198 90.1389 16.4628 90.0363 16.0694 90.1869C15.5567 90.4135 15.3624 90.8949 14.9609 91.2388C15.1908 89.9068 15.2771 89.2309 16.6862 88.859C18.134 88.4876 18.2058 87.2313 19.1531 86.3324C18.3381 86.8459 17.3022 87.0864 16.7469 86.0169C18.4655 86.5765 19.1765 85.3077 19.4129 83.8211C19.6661 82.3927 19.6219 81.1352 20.786 80.1419C20.071 80.115 19.7106 80.8654 19.2672 81.2862C18.7448 81.7448 18.1563 81.9319 17.4736 82.0601C17.5542 81.9836 17.6735 81.9075 17.7154 81.8306C17.9871 81.35 18.4845 81.0265 18.7562 80.5459C19.0077 80.0844 19.1617 79.6412 19.3561 79.1598C19.7447 78.197 20.7475 77.3567 21.6214 76.8245C23.0716 75.9309 25.7301 76.2298 27.4566 77.5244L27.6251 77.6616C27.775 77.7792 27.9048 77.916 28.0346 78.0527Z" fill="#00EA6B"/>
<path d="M28.5301 78.578C29.1498 79.3149 29.2392 79.9125 29.2181 80.8761C29.1842 81.9521 28.1933 82.7118 27.4907 83.4187C27.6619 83.0956 27.6176 82.7763 27.6562 82.4185C27.2778 82.8378 26.9225 82.6731 26.4967 82.9166C26.05 83.1799 25.8123 83.7266 25.3961 84.0011C25.5909 83.5352 25.0683 83.0475 25.4057 82.6269C24.9508 82.7977 25.1126 83.3668 24.7989 83.6445C24.527 83.8824 23.9299 83.9873 23.6289 84.1525C23.6621 84.0407 24.4557 82.9262 23.8541 83.2362C23.7398 83.3045 23.6383 83.722 23.4712 83.8605C23.3255 83.9586 23.1087 84.0238 22.9333 84.0698C22.5312 84.1704 22.123 84.0759 21.7601 84.2597C21.3452 84.4728 21.1417 84.8666 20.9277 85.2704C21.1594 84.5286 21.0162 84.0422 21.6628 83.549C21.9761 83.2918 22.1041 83.0701 22.3263 82.7588C22.5166 82.4979 22.7652 82.3824 23.0166 82.1439C22.2213 81.935 22.0689 82.8023 21.4085 82.9873C21.7842 82.6911 21.6707 82.2568 21.7922 81.8604C21.9237 81.4746 22.2497 81.105 22.6327 80.9423C22.9124 80.8175 23.638 80.9319 23.5969 80.469C23.5575 79.9242 22.7819 80.2186 22.5524 80.3962C22.6944 80.0005 23.0209 79.6104 23.4845 79.5117C23.8863 79.4316 24.2917 79.6491 24.4865 79.1832C24.1484 78.701 23.6662 79.1787 23.2052 79.1544C23.8628 78.6308 24.1645 77.5014 25.1957 77.7071C25.4713 77.7668 26.1342 78.4025 26.1755 77.9216C26.2046 77.5327 25.5135 77.245 25.2152 77.2872C26.2181 76.9177 27.6494 77.5869 28.3998 78.4406L28.5301 78.578Z" fill="#00EA6B"/>
<path d="M22.8414 67.7431C22.0109 69.1379 21.2375 70.487 20.5138 71.7806C19.79 73.0742 22.4844 77.3605 25.2672 80.286C28.0279 83.1881 33.1894 87.1975 34.5201 86.5417C35.8507 85.8859 37.2368 85.1843 38.6741 84.429L22.8414 67.7431Z" fill="url(#paint1_linear_257_1716)"/>
<path d="M63.6126 70.215C80.5672 59.349 97.5616 44.9033 105.49 24.4326L86.2591 4.16541C65.4034 11.0103 50.0829 27.2219 38.3444 43.5852L27.074 60.7633C26.0388 62.453 25.0481 64.0853 24.0849 65.6849L40.7955 83.2961C42.4417 82.4163 44.1281 81.5135 45.8671 80.5691L63.6126 70.215ZM84.5624 25.0344C86.7471 27.4287 86.6654 31.0985 84.3464 33.299C82.03 35.4969 78.3557 35.3911 76.0801 33.083C73.8936 30.6886 73.9814 27.0146 76.2978 24.8167C78.6169 22.6162 82.2851 22.7262 84.5624 25.0344Z" fill="url(#paint2_linear_257_1716)"/>
<path d="M47.5675 85.2058L45.8657 80.5697L63.6111 70.2156C62.9765 73.5887 61.9616 86.9915 61.9616 86.9915L41.783 103.864L38.0742 99.955L47.5675 85.2058Z" fill="url(#paint3_linear_257_1716)"/>
<path d="M21.5047 44.354C21.5047 44.354 34.9397 44.0408 38.3432 43.5856L27.0728 60.7637L22.5323 58.8211L7.30555 67.5279L3.59766 63.6202L21.5047 44.354Z" fill="url(#paint4_linear_257_1716)"/>
<path d="M106.357 21.9728C108.534 15.4507 111.093 0.244267 110.88 0.0193301C110.665 -0.207371 95.3902 1.59812 88.7637 3.43183L106.357 21.9728Z" fill="url(#paint5_linear_257_1716)"/>
<path d="M22.8398 67.743L38.6725 84.4289L40.7939 83.296L24.0833 65.6848L22.8398 67.743Z" fill="url(#paint6_linear_257_1716)"/>
<path d="M86.2578 4.16578L105.489 24.433L106.357 21.9732L88.7638 3.43225L86.2578 4.16578Z" fill="url(#paint7_linear_257_1716)"/>
<path d="M84.346 33.2988C86.6651 31.0983 86.7467 27.4285 84.562 25.0342C82.2847 22.726 78.6165 22.616 76.2974 24.8165C73.981 27.0144 73.8932 30.6884 76.0797 33.0828C78.3553 35.3909 82.0296 35.4967 84.346 33.2988Z" fill="url(#paint8_linear_257_1716)"/>
<defs>
<linearGradient id="paint0_linear_257_1716" x1="5.30619e-07" y1="103.486" x2="33.183" y2="72.5525" gradientUnits="userSpaceOnUse">
<stop stop-color="#00EA6B"/>
<stop offset="1" stop-color="#BB5E00"/>
</linearGradient>
<linearGradient id="paint1_linear_257_1716" x1="55.3831" y1="22.852" x2="87.2687" y2="56.4559" gradientUnits="userSpaceOnUse">
<stop offset="0.213542" stop-color="#D2CECE"/>
<stop offset="1" stop-color="#393535"/>
</linearGradient>
<linearGradient id="paint2_linear_257_1716" x1="55.3831" y1="22.852" x2="87.2687" y2="56.4559" gradientUnits="userSpaceOnUse">
<stop offset="0.213542" stop-color="#D2CECE"/>
<stop offset="1" stop-color="#393535"/>
</linearGradient>
<linearGradient id="paint3_linear_257_1716" x1="43.6991" y1="77.8406" x2="58.9776" y2="93.9425" gradientUnits="userSpaceOnUse">
<stop stop-color="#404040"/>
<stop offset="1"/>
</linearGradient>
<linearGradient id="paint4_linear_257_1716" x1="29.7495" y1="63.1389" x2="13.1424" y2="45.6368" gradientUnits="userSpaceOnUse">
<stop/>
<stop offset="1" stop-color="#7A7A7A"/>
</linearGradient>
<linearGradient id="paint5_linear_257_1716" x1="90.0998" y1="0.553052" x2="110.693" y2="22.2556" gradientUnits="userSpaceOnUse">
<stop stop-color="#8C8B8B"/>
<stop offset="1"/>
</linearGradient>
<linearGradient id="paint6_linear_257_1716" x1="18.9053" y1="60.1239" x2="46.8053" y2="89.5273" gradientUnits="userSpaceOnUse">
<stop offset="0.1875" stop-color="white"/>
<stop offset="1" stop-color="#393535"/>
</linearGradient>
<linearGradient id="paint7_linear_257_1716" x1="83.9779" y1="-0.290321" x2="111.878" y2="29.1131" gradientUnits="userSpaceOnUse">
<stop offset="0.135417" stop-color="white"/>
<stop offset="1" stop-color="#393535"/>
</linearGradient>
<linearGradient id="paint8_linear_257_1716" x1="84.4476" y1="33.8547" x2="75.8119" y2="24.7536" gradientUnits="userSpaceOnUse">
<stop offset="0.0885417" stop-color="#212121"/>
<stop offset="1" stop-color="#606060"/>
</linearGradient>
</defs>
</svg>
