<svg width="37" height="78" viewBox="0 0 37 78" fill="none" xmlns="http://www.w3.org/2000/svg">
<g clip-path="url(#clip0_137_100)">
<path d="M20.8091 35.8549L23.3301 35.5474L23.3451 35.6649" fill="#00EA6B"/>
<path d="M23.7839 55.9085L18.298 55.4085C18.3562 54.4567 18.4127 53.5042 18.4676 52.5508L23.7216 53.0283C23.7415 53.9884 23.764 54.9484 23.7839 55.9085Z" fill="#00EA6B"/>
<path d="M23.4922 42.4301L19.076 42.2426L19.1284 41.3901L23.4598 40.9675C23.4697 41.4551 23.4797 41.9426 23.4922 42.4301Z" fill="#00EA6B"/>
<path d="M34.9128 13.2009C34.9533 10.7067 34.2763 8.25361 32.9627 6.13506C31.6492 4.01652 29.7547 2.32223 27.506 1.25487C25.2572 0.18751 22.7494 -0.20772 20.2825 0.116451C17.8156 0.440621 15.4941 1.47047 13.5956 3.0828C11.6972 4.69514 10.3022 6.82169 9.5775 9.20807C8.85283 11.5945 8.82918 14.1396 9.50937 16.5392C10.1896 18.9387 11.5448 21.0909 13.4129 22.7385C15.2811 24.386 17.5831 25.459 20.0435 25.8292L19.879 28.5944L23.1356 26.2918V25.9192C26.3178 25.6297 29.2809 24.1707 31.455 21.8229C33.6291 19.4751 34.8607 16.4042 34.9128 13.2009ZM21.784 23.9516C19.6214 23.9152 17.518 23.2367 15.7399 22.0018C13.9618 20.7669 12.5889 19.0312 11.7947 17.014C11.0004 14.9968 10.8206 12.7888 11.2779 10.6691C11.7352 8.54945 12.8091 6.61334 14.3638 5.10558C15.9185 3.59782 17.8842 2.58612 20.0123 2.19842C22.1405 1.81071 24.3355 2.0644 26.3198 2.92741C28.3042 3.79042 29.9887 5.22399 31.1605 7.04686C32.3323 8.86974 32.9387 11 32.903 13.1684C32.8538 16.0755 31.6556 18.8442 29.5717 20.8661C27.4878 22.888 24.6886 23.9978 21.789 23.9516H21.784Z" fill="#00EA6B"/>
<path d="M27.3722 53.7361L26.9757 53.6985L23.6892 53.4085L18.4327 52.931L12.6824 52.4085L12.3333 52.3785L12.6625 41.6028L23.5072 42.0603L27.3598 42.2228L27.7313 42.2378L27.7114 42.8304C27.6016 46.3306 27.4928 49.835 27.3847 53.3435L27.3722 53.7361ZM13.1014 51.6884L18.5 52.1885L23.7565 52.6585L26.6491 52.9085C26.7521 49.5883 26.8552 46.2672 26.9583 42.9454L23.4672 42.7979L13.3757 42.3703L13.1014 51.6884Z" fill="white"/>
<path d="M27.6141 54.0085L26.9533 53.9485L23.6667 53.6585L18.298 53.1585C16.4212 52.9918 14.5427 52.8251 12.6625 52.6585L12.079 52.6059L12.4231 41.3552L23.5221 41.8228L27.3747 41.9853L27.9906 42.0128L27.9557 43.0703C27.8477 46.5006 27.7413 49.9316 27.6365 53.3635L27.6141 54.0085ZM12.5902 52.1584H12.7049L18.3404 52.6585L23.7116 53.1585L26.9982 53.456L27.1303 53.4685V53.336C27.2351 49.9025 27.3415 46.4706 27.4495 43.0403L27.4695 42.4778H27.3448L23.4922 42.3153L12.8994 41.8678L12.5902 52.1584ZM26.891 53.201L26.6266 53.1585L23.7341 52.9085L17.9988 52.3859L13.0914 51.9434L12.857 51.9209L13.1562 42.1228L23.4997 42.5603L26.9907 42.7078H27.24V42.9578C27.137 46.278 27.0339 49.5991 26.9308 52.921L26.891 53.201ZM13.3582 51.4734L18.0312 51.8959L23.7839 52.4084L26.4122 52.6585C26.5103 49.5083 26.6083 46.3572 26.7064 43.2053L23.4647 43.0703L13.625 42.6528L13.3582 51.4734Z" fill="white"/>
<path d="M28.1328 39.595C27.2701 39.5962 26.411 39.4853 25.5768 39.2649C24.8457 39.0717 24.1395 38.794 23.4722 38.4374L23.8238 37.7773C24.4407 38.1007 25.0925 38.3523 25.7663 38.5274C27.3526 38.9338 29.0152 38.9338 30.6014 38.5274L30.7785 39.2574C29.9131 39.475 29.0249 39.5883 28.1328 39.595Z" fill="white"/>
<path d="M28.1328 39.8452C27.2484 39.8451 26.3677 39.7317 25.512 39.5076C24.7632 39.3084 24.0395 39.024 23.355 38.6601L23.1356 38.5426L23.7216 37.4375L23.941 37.555C24.54 37.8775 25.1743 38.1292 25.8312 38.3051C27.3764 38.7015 28.9963 38.7015 30.5416 38.3051L30.7909 38.245L31.0877 39.4601L30.8383 39.5201C29.9526 39.7361 29.0443 39.8452 28.1328 39.8452ZM23.8113 38.3451C24.3956 38.6368 25.0081 38.868 25.6392 39.0351C27.2237 39.4436 28.883 39.4633 30.4767 39.0926L30.4169 38.8426C28.8642 39.2028 27.2479 39.1839 25.704 38.7876C25.0915 38.6238 24.4967 38.3994 23.9286 38.1176L23.8113 38.3451Z" fill="white"/>
<path d="M16.9165 74.2097L16.934 73.7696C17.1518 68.2426 17.3679 62.7164 17.5823 57.1911C9.13153 59.7287 2.17689 59.1912 0.580988 55.836C0.112192 54.8559 -0.0922811 53.0708 1.59588 50.1181L1.72306 49.8956L12.7747 51.6582L12.655 52.4083L2.11953 50.7257C0.728106 53.2558 0.872742 54.7259 1.25426 55.5185C2.50106 58.1136 8.59541 59.2262 17.8641 56.3285L18.3628 56.171L18.3429 56.701L17.6995 73.3596L23.6193 72.6296L36.0025 71.1045V35.1996L29.1551 34.9071L23.0358 26.3766L23.1505 26.2916L22.9311 25.9866L23.4298 25.634L29.5641 34.1746L36.7506 34.4796V71.7695L36.4215 71.8095L23.7041 73.3746L16.9165 74.2097Z" fill="white"/>
<path d="M16.6572 74.4948L16.6846 73.7597C16.8991 68.3494 17.111 62.9399 17.3205 57.5312C8.7949 60.0313 1.99985 59.3938 0.364045 55.9436C-0.134674 54.911 -0.351621 53.0409 1.38891 49.9957L1.60336 49.6207L13.0739 51.4533L12.8769 52.6884L2.26914 50.9908C1.02234 53.3409 1.15201 54.686 1.49364 55.4035C2.68558 57.9037 8.67022 58.9388 17.8068 56.0811L18.6496 55.8186L18.6147 56.7036C18.4019 62.1623 18.1883 67.6193 17.9738 73.0747L25.0307 72.2046C28.6049 71.7629 32.179 71.3229 35.7532 70.8845V35.4398L29.0205 35.1572L22.6768 26.3217L22.7915 26.2392L22.572 25.9317L23.4697 25.2866L29.6788 33.9322L37 34.2397V71.9921L36.4514 72.0596L23.734 73.6247L16.6572 74.4948ZM17.8442 56.8511V57.2012C17.6297 62.7298 17.4136 68.256 17.1958 73.7797V73.9272L23.6966 73.1247L36.414 71.5621L36.5237 71.5471V34.7197L29.4394 34.4197L23.3799 25.9817L23.2927 26.0442L23.5121 26.3492L23.3974 26.4317L29.2873 34.6572L36.2519 34.9597V71.3271L36.0325 71.3546L25.0906 72.6996L17.4377 73.6422L17.4502 73.3497C17.6696 67.7943 17.8866 62.239 18.101 56.6836V56.5061L17.9314 56.5586C8.52559 59.4988 2.30655 58.3087 1.02234 55.6186C0.620874 54.781 0.446335 53.2259 1.89262 50.5957L1.9774 50.4432L12.4505 52.1158L12.4904 51.8658L1.85521 50.1582L1.81282 50.2332C0.179518 53.0909 0.364045 54.7935 0.815386 55.7161C2.34645 58.9313 9.21632 59.4338 17.5225 56.9411L17.8442 56.8511Z" fill="white"/>
<path d="M20.642 36.0372C19.1048 34.4217 17.9612 32.4716 17.3006 30.3393L17.2108 30.0318L23.1954 25.7266L23.6293 26.3366L18.0811 30.3368C18.7216 32.2792 19.7845 34.0546 21.1931 35.5347L20.642 36.0372Z" fill="white"/>
<path d="M20.6295 36.3897L20.46 36.2072C18.8909 34.5646 17.724 32.5789 17.0512 30.4068L16.9091 29.9268L23.2378 25.374L23.966 26.3891L18.3728 30.4269C19.0079 32.2656 20.0282 33.9467 21.3651 35.3572L21.5347 35.5397L20.6295 36.3897ZM17.4976 30.1393L17.5375 30.2768C18.161 32.2921 19.2269 34.1417 20.657 35.6897L20.839 35.5197C19.4881 34.0517 18.4676 32.3098 17.8467 30.4119L17.7918 30.2393L23.2777 26.2866L23.1331 26.0841L17.4976 30.1393Z" fill="white"/>
<path d="M12.907 46.4107L12.8427 47.158L27.1353 48.3941L27.1996 47.6468L12.907 46.4107Z" fill="white"/>
<path d="M27.3647 48.6581L12.5752 47.378L12.6824 46.1279L27.4719 47.408L27.3647 48.6581ZM13.1138 46.923L26.9084 48.1156L26.9308 47.8655L13.1363 46.673L13.1138 46.923Z" fill="white"/>
<path d="M27.0256 52.2282L23.9036 51.5432V43.7527H27.3049V43.9402H24.0906V51.3932L27.0655 52.0457L27.0256 52.2282Z" fill="white"/>
<path d="M23.8563 39.8625H19.9637L18.8466 37.4974L23.4099 36.2998L23.4573 36.4823L19.1134 37.6224L20.0809 39.675H23.8563V39.8625Z" fill="white"/>
<path d="M24.9859 30.9719L21.3502 27.0916L21.4848 26.9641L25.0183 30.7319L26.1379 30.0543L26.2351 30.2143L24.9859 30.9719Z" fill="white"/>
<path d="M32.721 56.1136L32.0128 55.9086C32.7235 53.4984 32.1126 51.0182 30.4568 49.5931C29.4849 48.7945 28.2697 48.3534 27.0132 48.3431L27.0281 47.593C28.4581 47.6077 29.8398 48.1133 30.9431 49.0256C32.8133 50.6332 33.509 53.4084 32.721 56.1136Z" fill="white"/>
<path d="M32.8906 56.4236L31.6936 56.0711L31.7635 55.8211C32.4467 53.5034 31.8657 51.1257 30.2848 49.7632C29.3554 49.0028 28.1952 48.583 26.9957 48.5731H26.7463L26.7738 47.323H27.0231C28.5116 47.3418 29.9487 47.8712 31.0952 48.8231C33.0502 50.5057 33.7808 53.3934 32.9604 56.1836L32.8906 56.4236ZM32.3096 55.731L32.5589 55.8036C33.2147 53.2784 32.5315 50.7107 30.781 49.2056C29.7902 48.3829 28.5599 47.9048 27.275 47.843V48.0931C28.4984 48.1608 29.6674 48.6219 30.6089 49.4081C32.2846 50.8357 32.9379 53.3009 32.3096 55.731Z" fill="white"/>
<path d="M36.7506 77.6999L17.2407 74.1522L17.3754 73.4146L36.0026 76.8024V71.437H36.7506V77.6999Z" fill="white"/>
<path d="M37 77.9999L36.7058 77.9475L16.9515 74.3547L17.1734 73.1246L35.7532 76.5024V71.187H37V77.9999ZM17.5325 73.9522L36.5013 77.4099V71.687H36.2519V77.1024L17.5749 73.7072L17.5325 73.9522Z" fill="white"/>
<path d="M9.96194 42.6577L9.91207 42.3002C9.68764 40.6251 9.46488 38.9483 9.24378 37.2699L9.19391 36.8923L9.57044 36.8473L19.4002 35.6572L20.7617 35.4897L23.6543 35.1372L24.4173 41.2601L23.4972 41.3476L19.1633 41.7701L13.0615 42.3602L9.96194 42.6577ZM10.0367 37.5474L10.6053 41.8426L12.9867 41.6101L19.091 41.0126L23.4224 40.5901L23.5795 40.5751L23.0059 35.9598L20.854 36.2098L19.49 36.3773L10.0367 37.5474Z" fill="white"/>
<path d="M9.74498 42.9352L9.66519 42.3377C9.43578 40.6625 9.21302 38.9858 8.9969 37.3073L8.91461 36.6798L9.54051 36.6048L19.3703 35.4072L20.7318 35.2397L23.8712 34.8572L24.6966 41.4801L23.5196 41.5951L19.1882 42.0176L13.0839 42.6152L9.74498 42.9352ZM9.47567 37.1148L9.49063 37.2398C9.71339 38.9199 9.93615 40.5976 10.1589 42.2727L10.1764 42.3902L13.0365 42.1126L19.1409 41.5151L23.4722 41.0926L24.138 41.0276L23.4373 35.4072L20.7916 35.7297L19.4301 35.8973L9.60035 37.0998L9.47567 37.1148ZM10.3908 42.1152L10.3584 41.8651L9.78987 37.5699L9.75495 37.3198L10.0043 37.2873L19.46 36.1573L20.824 35.9898L23.2229 35.6972L23.8587 40.8126L23.4473 40.8526L19.1159 41.2751L13.0116 41.8726L10.3908 42.1152ZM10.316 37.7649C10.4823 39.0316 10.6485 40.3 10.8147 41.5701L12.9567 41.3601L19.0611 40.7626L23.3002 40.35L22.8015 36.2373L20.8963 36.4698L19.5324 36.6373L10.316 37.7649Z" fill="white"/>
</g>
<defs>
<clipPath id="clip0_137_100">
<rect width="37" height="78" fill="white"/>
</clipPath>
</defs>
</svg>
