<svg width="34" height="16" viewBox="0 0 34 16" fill="none" xmlns="http://www.w3.org/2000/svg">
<path d="M0 10C0 4.47715 4.47715 0 10 0H34V6C34 11.5228 29.5228 16 24 16H0V10Z" fill="white"/>
<path d="M11.8984 9.48633L11.8936 7.81152V7.79199V7.66504L11.7861 7.7334L11.7715 7.73828C11.612 7.83594 11.4378 7.90918 11.249 7.95801C11.0635 8.00358 10.8617 8.02637 10.6436 8.02637C10.0446 8.02311 9.60026 7.85221 9.31055 7.51367C9.22266 7.40951 9.14941 7.30208 9.09082 7.19141C9.03223 7.07747 8.98828 6.96191 8.95898 6.84473C8.92969 6.72428 8.91504 6.59896 8.91504 6.46875C8.91504 5.93164 9.05827 5.50684 9.34473 5.19434C9.70605 4.80046 10.1943 4.60352 10.8096 4.60352C11.3271 4.60352 11.7259 4.74674 12.0059 5.0332C12.2858 5.31966 12.4518 5.75586 12.5039 6.3418C12.5592 6.99935 12.5869 8.04915 12.5869 9.49121V10.9072H11.8984V9.48633ZM10.707 7.35254C11.1855 7.35254 11.555 7.21257 11.8154 6.93262L11.835 6.9082V6.87891C11.835 6.65755 11.8105 6.39062 11.7617 6.07812C11.7422 5.95768 11.7096 5.85026 11.6641 5.75586C11.6185 5.66146 11.5583 5.58171 11.4834 5.5166C11.3239 5.36686 11.0977 5.29199 10.8047 5.29199C10.3392 5.29199 9.99902 5.44661 9.78418 5.75586C9.64421 5.95443 9.57422 6.19043 9.57422 6.46387C9.57747 6.75684 9.67513 6.97819 9.86719 7.12793C10.0625 7.27767 10.3424 7.35254 10.707 7.35254Z" fill="black"/>
<path d="M23 12.5C23.89 12.5 24.76 12.2361 25.5001 11.7416C26.2401 11.2471 26.8169 10.5443 27.1575 9.72208C27.4981 8.89981 27.5872 7.99501 27.4135 7.1221C27.2399 6.24918 26.8113 5.44736 26.182 4.81802C25.5526 4.18869 24.7508 3.7601 23.8779 3.58647C23.005 3.41283 22.1002 3.50195 21.2779 3.84254C20.4557 4.18314 19.7529 4.75991 19.2584 5.49994C18.7639 6.23996 18.5 7.10999 18.5 8C18.5 8.744 18.68 9.445 19 10.0635L18.5 12.5L20.9365 12C21.5545 12.3195 22.2565 12.5 23 12.5Z" stroke="black" stroke-linecap="round" stroke-linejoin="round"/>
</svg>
