<svg width="34" height="16" viewBox="0 0 34 16" fill="none" xmlns="http://www.w3.org/2000/svg">
<path d="M0 10C0 4.47715 4.47715 0 10 0H34V6C34 11.5228 29.5228 16 24 16H0V10Z" fill="white"/>
<path d="M9.05664 10.9072H8.36816V9.48633C8.36816 7.72526 8.17611 6.18555 7.79199 4.86719L8.44629 4.66211C8.64811 5.36198 8.79948 6.11393 8.90039 6.91797C9.00456 7.71875 9.05664 8.5765 9.05664 9.49121V10.9072ZM11.6836 6.41016C11.6836 6.55013 11.7064 6.67546 11.752 6.78613C11.7975 6.89681 11.8626 6.99284 11.9473 7.07422C12.0352 7.15234 12.1426 7.21745 12.2695 7.26953C12.3965 7.31836 12.543 7.35254 12.709 7.37207C12.8945 7.39486 13.0361 7.39648 13.1338 7.37695C13.1956 7.36393 13.2559 7.3444 13.3145 7.31836C13.3763 7.28906 13.4365 7.25326 13.4951 7.21094C13.5732 7.1556 13.6514 7.10026 13.7295 7.04492C13.8076 6.98958 13.8857 6.93424 13.9639 6.87891C14.0452 6.82357 14.1234 6.76823 14.1982 6.71289L14.5498 7.32812C13.9736 7.64062 13.1175 8.89714 11.9814 11.0977L11.3613 10.7998C12.1426 9.34147 12.6374 8.46094 12.8457 8.1582L12.8555 8.14355L12.9238 8.04102L12.8018 8.02637H12.7871C12.1849 7.96777 11.7373 7.80827 11.4443 7.54785C11.1514 7.28418 11.0049 6.91471 11.0049 6.43945C11.0049 5.93164 11.1546 5.51335 11.4541 5.18457C11.7764 4.8265 12.2061 4.64746 12.7432 4.64746C13.1077 4.64746 13.4219 4.71582 13.6855 4.85254V5.47266C13.4382 5.36523 13.1794 5.31152 12.9092 5.31152C12.7952 5.31152 12.6878 5.32129 12.5869 5.34082C12.486 5.36035 12.39 5.38965 12.2988 5.42871C12.2109 5.46777 12.1296 5.51823 12.0547 5.58008C11.804 5.77865 11.6803 6.05534 11.6836 6.41016Z" fill="black"/>
<path d="M24.3438 3.5C23.3758 3.5 22.5283 3.91625 22 4.61984C21.4717 3.91625 20.6242 3.5 19.6562 3.5C18.8857 3.50087 18.147 3.80734 17.6022 4.35218C17.0573 4.89702 16.7509 5.63573 16.75 6.40625C16.75 9.6875 21.6152 12.3434 21.8223 12.4531C21.877 12.4825 21.938 12.4979 22 12.4979C22.062 12.4979 22.123 12.4825 22.1777 12.4531C22.3848 12.3434 27.25 9.6875 27.25 6.40625C27.2491 5.63573 26.9427 4.89702 26.3978 4.35218C25.853 3.80734 25.1143 3.50087 24.3438 3.5ZM22 11.6938C21.1441 11.195 17.5 8.92297 17.5 6.40625C17.5007 5.83461 17.7282 5.28659 18.1324 4.88237C18.5366 4.47816 19.0846 4.25074 19.6562 4.25C20.568 4.25 21.3334 4.73563 21.6531 5.51562C21.6814 5.5844 21.7294 5.64323 21.7912 5.68463C21.853 5.72603 21.9256 5.74814 22 5.74814C22.0744 5.74814 22.147 5.72603 22.2088 5.68463C22.2706 5.64323 22.3186 5.5844 22.3469 5.51562C22.6666 4.73422 23.432 4.25 24.3438 4.25C24.9154 4.25074 25.4634 4.47816 25.8676 4.88237C26.2718 5.28659 26.4993 5.83461 26.5 6.40625C26.5 8.91922 22.855 11.1945 22 11.6938Z" fill="black"/>
</svg>
