<svg width="285" height="125" viewBox="0 0 285 125" fill="none" xmlns="http://www.w3.org/2000/svg">
<path d="M76.7088 30.9699C77.0076 30.9012 76.7829 31.3397 76.7829 31.3397C76.0491 31.679 63.137 36.0228 63.1466 41.4394C63.15 43.3592 63.168 44.5628 64.9325 46.0039C68.1261 48.6119 73.7999 47.9397 80.2472 48.3378C87.5523 48.789 92.8328 47.1807 100.021 47.7769C105.702 48.248 110.451 47.9183 113.311 50.2537C115.509 52.0488 116.693 53.5073 115.291 56.0109C113.418 59.3543 109.095 61.2818 103.121 63.41C98.6457 65.0044 94.9469 65.7811 90.1107 66.6104C65.2149 70.8795 57.1806 56.4586 32.4887 61.8699C22.5888 64.0395 15.0841 64.9084 8.49767 69.9197C2.9498 74.1408 2.04421 76.8999 3.23081 81.0276C4.51148 85.4824 10.6014 86.2888 16.4261 89.1049C23.7844 92.6624 31.5828 92.6178 37.8097 96.7338C41.3975 99.1053 44.228 100.354 44.9828 103.635C45.5044 105.902 44.8999 107.371 43.7428 109.838C41.2066 115.245 28.8003 124.149 28.8003 124.149L27.3025 123.164C27.3025 123.164 39.1281 115.369 41.7159 110.045C42.8389 107.735 43.5038 106.349 43.0323 104.224C42.3135 100.983 39.1209 99.8938 35.4997 97.5933C29.1779 93.5771 21.7085 93.4691 14.5139 89.8847C8.58117 86.929 2.46409 86.0035 1.20447 81.3863C0.0542795 77.1703 1.51078 73.8322 7.13328 69.527C13.7026 64.4968 22.3496 63.0532 33.0931 60.7564C57.819 55.4703 65.8619 70.1507 90.7151 65.4969C95.3952 64.6205 98.2964 64.3356 102.571 62.7263C107.745 60.7779 111.692 59.1574 113.264 56.2182C114.376 54.1379 113.835 52.8969 112.279 51.3011C109.707 48.6617 104.804 48.7243 98.8328 48.1898C92.3085 47.6058 87.4779 49.1402 80.7254 48.8462C73.7691 48.5433 67.6134 49.3561 64.1783 46.5925C62.2393 45.0325 62.2788 43.6986 62.3511 41.5987C62.5394 36.1301 74.4706 31.8027 76.7088 30.9699Z" fill="#DDDDDD"/>
<path d="M76.7088 30.9699C76.4193 31.0573 76.7829 31.3397 76.7829 31.3397C76.7829 31.3397 99.1768 22.8052 109.593 25.3583C113.285 26.2632 115.592 26.841 117.532 28.6828C121.043 32.0161 117.074 35.4437 114.799 39.8848C112.222 44.9169 106.637 47.6447 104.394 52.6678C102.62 56.6375 99.7463 59.6161 102.89 62.601C105.307 64.8955 107.554 66.3626 113.032 66.6144C120.348 66.9505 126.095 65.0046 133.007 62.0637C138.186 59.8605 141.424 57.7852 145.301 54.9842C165.256 40.5652 141.302 28.4836 163.359 14.7363C172.202 9.22443 177.413 4.68138 190.161 2.69188C200.898 1.01609 206.633 1.71584 214.015 4.43953C221.981 7.37913 220.66 11.7764 223.331 16.9436C226.704 23.4713 222.941 28.5957 227.922 34.6395C230.792 38.1218 231.86 40.5766 237.815 42.6171C241.931 44.0271 245.043 44.3191 250.335 44.7156C261.934 45.5847 284.915 41.5853 284.915 41.5853L283.726 40.1339C283.726 40.1339 263.152 44.2714 251.69 43.4758C246.715 43.1305 243.735 42.9175 239.869 41.6071C233.974 39.6093 233.383 36.9905 230.665 33.5195C225.92 27.4601 229.235 22.4809 225.733 16.0486C222.845 10.7445 223.949 6.27328 215.661 3.27125C208.092 0.530028 200.983 -0.0784612 190.049 1.60702C177.273 3.57633 170.417 8.60284 160.931 14.6115C139.099 28.4402 163.549 40.6494 142.874 54.8595C138.98 57.5354 137.064 59.3156 131.952 61.379C125.763 63.8771 120.783 65.7195 114.387 65.3745C109.86 65.1303 107.728 64.1894 105.392 62.413C101.527 59.4749 103.96 56.2691 105.748 52.078C107.702 47.4987 112.932 45.0329 115.552 40.4393C118.25 35.7072 122.717 32.0278 119.02 28.4619C116.934 26.449 114.349 25.848 110.275 24.9083C99.665 22.4613 78.5992 30.3991 76.7088 30.9699Z" fill="#DDDDDD"/>
</svg>
